<mxfile host="app.diagrams.net" agent="Mozilla/5.0 (X11; Linux x86_64) AppleWebKit/537.36 (KHTML, like Gecko) Chrome/124.0.0.0 YaBrowser/24.6.0.0 Safari/537.36" version="24.8.3">
  <diagram name="Страница — 1" id="lNO1MX1cuJwTG7SGhl6w">
    <mxGraphModel dx="2390" dy="2554" grid="1" gridSize="10" guides="1" tooltips="1" connect="1" arrows="1" fold="1" page="1" pageScale="1" pageWidth="827" pageHeight="1169" math="0" shadow="0">
      <root>
        <mxCell id="0" />
        <mxCell id="1" parent="0" />
        <mxCell id="3" value="gateway-service" style="whiteSpace=wrap;strokeWidth=2;" parent="1" vertex="1">
          <mxGeometry x="477" y="-70" width="176" height="47" as="geometry" />
        </mxCell>
        <mxCell id="4" value="auth-service" style="whiteSpace=wrap;strokeWidth=2;" parent="1" vertex="1">
          <mxGeometry x="707" y="-302" width="147" height="47" as="geometry" />
        </mxCell>
        <mxCell id="5" value="menu-service" style="whiteSpace=wrap;strokeWidth=2;" parent="1" vertex="1">
          <mxGeometry x="924.84" y="-91.5" width="120" height="47" as="geometry" />
        </mxCell>
        <mxCell id="12" value="" style="curved=1;startArrow=none;endArrow=block;exitX=0.69;exitY=1;entryX=0;entryY=0.5;" parent="1" target="3" edge="1">
          <mxGeometry relative="1" as="geometry">
            <Array as="points">
              <mxPoint x="454" y="-84" />
            </Array>
            <mxPoint x="400.48" y="-63" as="sourcePoint" />
          </mxGeometry>
        </mxCell>
        <mxCell id="13" value="" style="curved=1;startArrow=none;endArrow=block;exitX=0.5;exitY=0;entryX=0;entryY=0.5;exitDx=0;exitDy=0;entryDx=0;entryDy=0;" parent="1" source="8eVqctKR0tM4HhJl3EsU-24" target="4" edge="1">
          <mxGeometry relative="1" as="geometry">
            <Array as="points">
              <mxPoint x="609" y="-320" />
            </Array>
          </mxGeometry>
        </mxCell>
        <mxCell id="15" value="" style="startArrow=none;endArrow=block;exitX=1;exitY=0.5;entryX=0;entryY=0.5;exitDx=0;exitDy=0;" parent="1" source="8eVqctKR0tM4HhJl3EsU-61" target="5" edge="1">
          <mxGeometry relative="1" as="geometry" />
        </mxCell>
        <mxCell id="17" value="" style="curved=1;startArrow=none;endArrow=block;exitX=0;exitY=0.5;entryX=1;entryY=0.5;exitDx=0;exitDy=0;entryDx=0;entryDy=0;" parent="1" source="8eVqctKR0tM4HhJl3EsU-63" target="3" edge="1">
          <mxGeometry relative="1" as="geometry">
            <Array as="points">
              <mxPoint x="754.84" y="-38" />
            </Array>
            <mxPoint x="904.84" y="-6.920000000000414" as="sourcePoint" />
            <mxPoint x="729.8000000000001" y="9.01299999999992" as="targetPoint" />
          </mxGeometry>
        </mxCell>
        <mxCell id="8eVqctKR0tM4HhJl3EsU-25" value="user-serivce" style="whiteSpace=wrap;strokeWidth=2;" vertex="1" parent="1">
          <mxGeometry x="1129" y="-302" width="120" height="47" as="geometry" />
        </mxCell>
        <mxCell id="8eVqctKR0tM4HhJl3EsU-26" value="" style="curved=1;startArrow=none;endArrow=block;exitX=1;exitY=0.5;entryX=0;entryY=0.5;entryDx=0;entryDy=0;exitDx=0;exitDy=0;" edge="1" parent="1" source="8eVqctKR0tM4HhJl3EsU-28" target="8eVqctKR0tM4HhJl3EsU-25">
          <mxGeometry relative="1" as="geometry">
            <Array as="points" />
            <mxPoint x="850" y="-171" as="sourcePoint" />
            <mxPoint x="914" y="-171" as="targetPoint" />
          </mxGeometry>
        </mxCell>
        <mxCell id="8eVqctKR0tM4HhJl3EsU-27" value="" style="curved=1;startArrow=none;endArrow=block;entryX=0.25;entryY=1;entryDx=0;entryDy=0;exitX=0.113;exitY=0.057;exitDx=0;exitDy=0;exitPerimeter=0;" edge="1" parent="1" source="3" target="8eVqctKR0tM4HhJl3EsU-24">
          <mxGeometry relative="1" as="geometry">
            <Array as="points" />
            <mxPoint x="489" y="-110" as="sourcePoint" />
            <mxPoint x="720" y="-255" as="targetPoint" />
          </mxGeometry>
        </mxCell>
        <mxCell id="8eVqctKR0tM4HhJl3EsU-24" value="&lt;p data-pm-slice=&quot;1 1 []&quot;&gt;Запрос на аутентификацию&lt;/p&gt;" style="text;html=1;align=center;verticalAlign=middle;whiteSpace=wrap;rounded=0;rotation=0;" vertex="1" parent="1">
          <mxGeometry x="459" y="-270" width="180" height="30" as="geometry" />
        </mxCell>
        <mxCell id="8eVqctKR0tM4HhJl3EsU-30" value="" style="curved=1;startArrow=none;endArrow=block;exitX=1;exitY=0.5;entryX=0;entryY=0.5;entryDx=0;entryDy=0;exitDx=0;exitDy=0;" edge="1" parent="1" source="4" target="8eVqctKR0tM4HhJl3EsU-28">
          <mxGeometry relative="1" as="geometry">
            <Array as="points" />
            <mxPoint x="854" y="-278" as="sourcePoint" />
            <mxPoint x="1119" y="-283" as="targetPoint" />
          </mxGeometry>
        </mxCell>
        <mxCell id="8eVqctKR0tM4HhJl3EsU-28" value="&lt;p data-pm-slice=&quot;1 1 []&quot;&gt;синхронный запрос на поиск пользователя&lt;/p&gt;" style="text;html=1;align=center;verticalAlign=middle;whiteSpace=wrap;rounded=0;rotation=0;" vertex="1" parent="1">
          <mxGeometry x="904" y="-332" width="180" height="30" as="geometry" />
        </mxCell>
        <mxCell id="8eVqctKR0tM4HhJl3EsU-31" value="" style="shape=cylinder3;whiteSpace=wrap;html=1;boundedLbl=1;backgroundOutline=1;size=15;" vertex="1" parent="1">
          <mxGeometry x="1469" y="-320" width="60" height="80" as="geometry" />
        </mxCell>
        <mxCell id="8eVqctKR0tM4HhJl3EsU-32" value="" style="curved=1;startArrow=none;endArrow=block;exitX=1;exitY=0.5;entryX=0;entryY=0.5;entryDx=0;entryDy=0;exitDx=0;exitDy=0;entryPerimeter=0;" edge="1" parent="1" source="8eVqctKR0tM4HhJl3EsU-34" target="8eVqctKR0tM4HhJl3EsU-31">
          <mxGeometry relative="1" as="geometry">
            <Array as="points" />
            <mxPoint x="1254" y="-264.33" as="sourcePoint" />
            <mxPoint x="1299" y="-264.33" as="targetPoint" />
          </mxGeometry>
        </mxCell>
        <mxCell id="8eVqctKR0tM4HhJl3EsU-35" value="" style="curved=1;startArrow=none;endArrow=block;exitX=1;exitY=0.5;entryX=0;entryY=0.5;entryDx=0;entryDy=0;exitDx=0;exitDy=0;entryPerimeter=0;" edge="1" parent="1" source="8eVqctKR0tM4HhJl3EsU-25" target="8eVqctKR0tM4HhJl3EsU-34">
          <mxGeometry relative="1" as="geometry">
            <Array as="points" />
            <mxPoint x="1249" y="-278" as="sourcePoint" />
            <mxPoint x="1359" y="-280" as="targetPoint" />
          </mxGeometry>
        </mxCell>
        <mxCell id="8eVqctKR0tM4HhJl3EsU-34" value="&lt;p data-pm-slice=&quot;1 1 []&quot;&gt;SELECT пользователя по username&lt;/p&gt;" style="text;html=1;align=center;verticalAlign=middle;whiteSpace=wrap;rounded=0;rotation=0;" vertex="1" parent="1">
          <mxGeometry x="1269" y="-295" width="180" height="30" as="geometry" />
        </mxCell>
        <mxCell id="8eVqctKR0tM4HhJl3EsU-41" value="" style="curved=1;startArrow=none;endArrow=block;exitX=0;exitY=0.5;entryX=0.5;entryY=1;entryDx=0;entryDy=0;exitDx=0;exitDy=0;" edge="1" parent="1" source="8eVqctKR0tM4HhJl3EsU-43" target="8eVqctKR0tM4HhJl3EsU-25">
          <mxGeometry relative="1" as="geometry">
            <Array as="points">
              <mxPoint x="1189" y="-200" />
            </Array>
            <mxPoint x="1404" y="-170" as="sourcePoint" />
            <mxPoint x="1359" y="-170" as="targetPoint" />
          </mxGeometry>
        </mxCell>
        <mxCell id="8eVqctKR0tM4HhJl3EsU-42" value="" style="shape=image;verticalLabelPosition=bottom;labelBackgroundColor=default;verticalAlign=top;aspect=fixed;imageAspect=0;image=data:image/png,iVBORw0KGgoAAAANSUhEUgAAAlgAAAGQCAMAAABF6+6qAAAABGdBTUEAALGPC/xhBQAAAAFzUkdCAK7OHOkAAABdUExURUxpceDh4uLi4uHh4ry8vKampn9/gNna2sXN05SUldbW1y0tL3l5elFRUiwsLsTFxZCQkf///wAAAjNokwcICfz9/SMjJe7z9T5qjWVlZ97n7EZGR1l/nHiYsJq0yMU4214AAAARdFJOUwA0j2H9/v7+/fzVX9SnIbmqlctVqQAAIABJREFUeNrsnW13mzwMhp91EJt+2SGbMG/h///Mx5ZkAwkBTENCG6nndH0JtBvXbt2WZfu//yQkJCQkJCQkJCQkJCQkJCQkHhe/fPzm+IgNuuzXIP77Jf+ubwrTFUKfIVQfehhqFJ/9Nz5HccWbg0zi50sTw+QR+hzQ43Cpa7MmYPKrtQu+4Q1qwthPTHRem/A5E0NIgccoHwfkCwHALwMM+qi/GoAwI1SDxtn4I4j9CKa8PAVdQqCc5DARiMEVVP0bMnLziojgH8N65n8JVjHHlzyj70ZUAApVQ5E6AYsRXIE0xglYjPy7zViN9I9+MPFFhKGGIV/ywL6FKceMR0+PTZOXJ5KoKYW6Ag0egRbc+dRrWB3cmKjX0YnqVQolCm4f6wAtWFKswedf1SwY6lb/q4Bh/RK6DkqVI8pXBLxGeULYT48AgwFpt4rFKRPyCQ+2Ubdg6iexgJF6kbu3eAlchzHoCJUmpgAWcxPk+ZTTghFuOTyAqgj6wPsv0a5jSNWnH+7NMnXwCDwzXViXEOl6IVXofy1U5My/L1njGoUh2/XxIWi9IH5/fLKl+gk8jUus4Fw9siWy9XSsGKpRLTzPIf/u6bAfvFq2BK1nJ8ExVj8ywFUjrGwJWk/1Vj+cqkCXs/KC1vOyoIEfzxWwk0e0hKz9uUK5yt8oHFpC1jO4epMsGCbMXf1ByNqbK61MDu8kWO4vK2Tt7ds/38W1X81jGqU/f8vz37PM8Dq9gqe/DX6sI0s0a694KVcvVCwkS+sPIWC/RAivfs4vUSysaIlk7TgifDPbHhoE3Qy7SNZ+Duut6lc3Rfjkj0jWC8CCm77Qx37+crCMDAx3s1iQv7NkCVgvAWtHxYIjSBaAErD2Ait/6xCwXjIoPLpHErBEsQQsAet9FEs81m6p8M97jwqtYkkday+PBe/tsQSsncDKRbEkDgQW/AzJErCOqVg3Fc/1BVMB60eDlYhiCQWHAksUS0IUS8ASxRKw3gGsPbsTjoGYVN5FsQSsn1Nu2FGxDsKYgLXbXKEolsTj49eft+5usGAlAtYLwHqDucJE1n+JYu3QkCVgiWLtElrAEsUSxRLFEo8lYL31XKEo1kEV69vXscRjiWKJYolifaPKu4C1D1gfolhCwR7x8TjFgsHh0PeQu1lrBqPvjFgNd4Lb+8HjFEumdHaJ37iucGI3xTV7Ll6fmrvigd8cHz28BkanARuVpFl2OlX2LcvSRA2OdoUH4QUC1m5gfUmvrk5NhZWCApDfPXmVgKqa4h/GefBH0Zyy5KFnHQhYu4H1mX+hsn5zHPSS9eKDyaHWTo0yJ0SJriGQBsohxUyNgwmzdFVpnT/qiE5pm9kTrC1G3J10ZOE4VU1jSSjse5uw0kTjaQRw/yqVZFUxxOVMsJzstWlVTKE0QViT6ccIl9IC1l5gwSrFgtGp8SY5NU0xoSiOsSpLzEjP/IcmqZri392Y+dbEi5tTvTr1ClgvTIVrxn/4zqi0uSsoIWGdUu0OFAtUgWWxYIFaiU5BSojhPubb93eoEgNf9PAC1qs9VsAqnROd8wiMKlPeO0HGlzEa55lc51JdhWlV1XVtjDuGvlY6SbLT1c8umpSLHCBgHQ+sVRaL8FBZ8W9erc5jxIpTUgPUWTG+yItRwUrUX+S8uYJ7Y0wAbS3a8IrGpl3YXqsVsPYqvceMCk1WXBudyg7sKDJn5KfEzApXM0KnVyMrRMqND70SNSesJtytUqH+mToJN3SsVgrEY31fj+VMUkMeicdxODAb4oenAOr05AsG5ynIUhVGAiMcVFqdVO/IpsqtA+RBDQeQWS1gHVGxZk5eG3zRVD0tjXXmcJWpwJeWqBBRTYhXlfDB0wA8ATROc4OPYDKC13OlsLTXwUbDRtUSsF6oWEhWEh5jc1I5PeWhtwEY4oWiMnRDZ+u2aq5Y9HV3yGGKCHDngde11p2Niw33p9bWyANrHd2i/53+ZQY2DQ8FrJd4LAjlq9S77yKtg3LAiBEkJnwR8yK7IWes3AARglZdCxGMGK0tTW1buvhro/TRWsTqoHaA2dnn20ptGhoKWK8bFboHmIXyFEBIRvYdlQI47CcDrPzDV9aZF2SwGSHjxMipUa9EBoaJ0OgWiZoIR5dm5UKMM18cK/SWZChTOs9WrOGn5hRkoT/tD1hYrLTgmw2Xs7QZKRnSp5NBDrNXoRoFUtyll071bLkX3UfLXmLZYq/mZhcrD30qHuu7KBYZImCuisz4DGhqfSl7Ono9cXHprAgBJ8aQNFGrVNfeXsUX2jTXlxrAdO3fvzNsdeEnUJp2kcaXtKS7YS+w1Gwdi7INc5WAd9b6MiMomK/aSzdgi02Vg3H+Mn+Ru6C+lItoEfiaTPy5yGK5kg7SvcJ1kM54LPeEWRCamvGou1mqhpi46UKvWkavuMzqFlbHKPQCvl0dSiFhcCg978cBa06xIFdUvmoU645ehVVwQ4Zla15/xlJk/Ehx4aKy1Wznwugii5MsUay9vPvHwhL7vKYBfaFIRFbzwY+enryVq4jLPFqw5LTsSy8151pvtNK4saGsK9wRLLjb824jI/eSMFdtHFcd+6wu6jIvRXjOfLsoWjT0TL0TjCmUimLtBdbCukJQVBZNSUB0JB8d1ZsiZc5LUb5KI8vOUOJkzSpUTA1ewNodrMk6FrvikzfTkXDQIzfxXNlw+RDRWrq8vLDRYs1yo4y1ZIli7QnWzKgwQRVo6EUqko+2zjfYsiv/5KIrl1/oxhkn6qE/RRh48VjPViz6qGFD7J5b3UaCoSl/buTK+SfF1n+RLBI3U9HMoRaPdWyPBQnlFqqKXiKxQO+zCMUCm4aKHms0y9Wz6D9CY6SOdZxUeOuxgByWq7jbt1hAWioZ6C9w5WqgPOZbo1n2lboYzBHIgtUjKhbwYzr/q8zGRIglzsFlWxBD3Vvls8xgWrOSucLXgwVwb5shN0loTQuVsCKdkn3Q2J9++Ypg+TEfTkovVh2oskElB7NasaRtZk/FmhhGOb3B5r4GH2xdbnLu+qtceS1aQRa1J1N9JJV+rEN4rMk6Vq559g0F6/ox3nu8QWfQ8LdfSYOjOtVyMkabldN4owLpxzqoYlkusCxEk4RbSg0QPZOz4LP0omQ5UlxH6fpxoYD1bMXKgcbujdkwl/P3ssnwz08NLXHqXJavOBS1gHVYxaJ+mdNkJlw3JHyMYPWObcFmkc2nEokWsI5aec9p6g1zmlnbSzWsYXnD/wi62nqFzSrxV6eCQyJgHbbyjk+oyPMNXS/djMPaRluLBdD5lFzW/f+HVMA6aOWd5wkrfJ5xmbAsUV/MgxzW0MDPJkN07zwNlQlYR628Q/+AYhG5bDL8q2zWXDIksBQ1+ghYR/VYilOKa09uYzNhHm/4V9qsmayMw0IGqxKwjpIKryPFlfE6j6+fl7h4xpSPBYt1cKbJguoNAtaxFYumc4vaiUCkd2/Hbe7lA6rvg6LrfcppulDAOrjHqnCisI4fFHKh8sGZsG/EuczWUQWsg48KqRfLTY1EDwqdzc7r9uFgYRVjpsNrA1jSQfp0xaKpkQp3a2ijXXb+4DHh4M73tZAnC+NGhQLWPmB93vNY9aCMVUaa7FXzzxvA496sey08G+pYolh7gjU5KqxpphD7siLW1NOU3Vyx4UutyrRZw50qqfuur7yvLZDKKp194vddxaIpaKqPRq+qz8HskAlDm5cuZ6Z0spgpHVGspyvWAKy47lFUlV0sVqiS3pkJKLHLOnISWsB6nWLFgdXChtLXQ6a3W8hD20wiinVQxdLbwCqxK+oLq1SX7k8dhOWdPBka/ZR4rINW3vVWxcKJQtP+3Qms5O48JBVm6yiwRLGeXsfqwYINYI2XE/q3Lyxcpb1z3Ttzb16H66NF2BhEPNZrwZo+E5rBcp/XMeUGmtFDsLiljzZov7TDzXDLKKg6regUMGNq2qVh6lfCfmj6vc+VEcU6qGKpAFacYtEWM9pD1V7CBt2Le+JOgkpbb4fjKDhpT00YtXjyRRq5/EvAerLHCqPCyAaYAVi0uy1v+07rDGs/nivXQOUMOe7/fn0C9KSHa7E+muFJGGsL77J3w35gwfSwUG2qvFuYEKzOMRGkyp8nEL1bVun3ufUbeodd4NvpqSSuNqzfyEh9/hIKdgILFuYK4yahW0PNWHzUhN+K3Z/pBDH7+3Gj+9VpYPfAon0p6ewesx4sUazneizcLfkc3d3gNgNxZ4X150YQTf6cHYjYOZJanCmFan8MGJ5nNwUW7d1g/I5e0o/1erCm+7GasIVZTD8W7jKT83kU3rMjE5dOsdda26pFmzG47NkOxpNYVJgCC3tqkthtjESxnqxYPDVSR+25VnL5OxxdSIfn+EN2WnZd6+7nlz93JR3kxCNKXDFxy2bZ4q1PcZvNCFhPHxXyelU8jyJiRpnACgd9BakpCS/qAV0nWRe/khBHl+5gzDJ0803coev3ily/o5+AtVfMrdLxjygKrM6PBUx/JJMlo3P50GK2fheaMN/sN8iiiRzaFuK2tMaF2SJqplBGhS9QLB2SSsyuMR6sYVnB76tt7Ndo0LimMlbiqNISVCo/BkCw1PSCtLYOdfeozW0FrCd7rBxw3H6KXAnNOuOM0fUiCNqauwuILLbf5NR+w7dknWtxFnACLDyrMNTdQVLhUcHKi1DIiljK5cEpr+wPk6V5S/ZuhcWihRMlbsqNXLV/PVi316O3g7BRpHisA4NVbdlthvd1HL++1TwpYzkZzSUur05saWJHa39I4mV6QRotpAA6TseAjAoPDBY1j5u4NfbYlX5TUuV9F9xu7dSDsMK1dcPViaExoqQ+wnaqAdD7wibiZDkB6/lgpdw8DlH9DaQo7XXrS+fKBZgg0XCZSLCuPVw5kTjDLu8xB/gKWM8377o4+1Y/iAHrf/autsltmwfO00qWlC8dqoZIvfn//8yKAEi9WiIVO7LvgTKTpsnl7qbaLsHFYrFZnFuJ03gIhOxPeWzqVaQ2rG6VFDQTrWLJZoorGKvB/OE6LpLI9EdD+V2gkoUJHytme6I20GhQVpWY8yw7oa8H1q/njOW6hQBBt7hZpmN/oE8FAKvfvI8++dv4VenwDnaPioP0jc/fz4HluoVZVDqf6ZCxHrtzh8NzvPuw24yWMZvLwOgKSQE5wUPQMqXzTmDlzxmLroW0DTq8eu/0ps60NMMca+8GfXtLCHWUiWq2TkKNO6XujeyE/mhgudyWQsVsprA9G9gFFo3xHF8HiNmaNbA2Sr5usrq3jSEsqbHeBaxkB1ia3ckqZgsmSVaPA0kdjs2DZLxaftx25UXOhjoqDkQY6zJgUSB3FbUVB5X1fcZiQcIEKGLrL9yTB3UrZoZc+lWupMb6aGCBy9doIKZ6P2asLvBauNn8wZbgAlhsmUhj1/YKY13FWHR9T2KWnhwX75z4dwysyejronhfAovcE3QS3gCkxvpwuYHdTbSmqYsAFhwCK7QNvaruOkpe2yjzaYzinilhrM8WSK1Zzy+WC/e9HwMLK6KQs7XbyLLFDKw5sDhAsjhxJxRgXdHSUXaLfYlZ7xFhtS8EltmY9DKwQjm3D1sUsQoFAqxPB5YbqEhi7Mn94cCYyUKB1a8vpGZ9VeSUZncnhEgdS5rQfxpY9m2VnAyighOvnrgbVmNdIQyIduO5RrpuQpNnld1jrY4jLBlYvYaxAJskMQYHQ+pTtw+swMkfPuSmkhdfFc2idGcx957G8ZVMQr8PWPne/8+qxSJLQbA92Rzr6hELBuiTLflp3hBCix9PQFdaqbizUID1tmbh7n/3wq3vDc31Y5+B2QdW6KwiNZdnKv3S+kwLVridc1NKGOtThKzdozCpfJEVpmRRxaPNC3SssXyffCyHjvTzz6Zc6Q6RtbsA6xpg2f5b6aJBgsx+zwaVl6OlgScr57r38w7iBFg8IHtz7RwQYH0FY2kqsprgUZ2A9QEuQSt4/nV2bi50MsqY4bGvAuQo/Bzpff8+fnPjCYGeLLNlSdgK+wgMySIr8uQYZr6bDVGw6h5fuguwrgIW37aK4Hloc2iy4bopUBZbUVZH7Dkv3duTpbsA6xJgjbPFrVJhc/GGEhf64yH8GBvO1M+Am5g80EiOTc44sRywpKVzCWNxGoIOnajY8kttVWHBJnrWL/zXnsmrFA/J32OcE0uAdS1j8Tw0phnpQGDtH5q0DSdiaH++CZrXBEyGX4G8+XZmW4D1JYzlm7vBXZ1jYPV7uyyPKWsKLEr3Y4dfCyDA+qKjkD1ZoUsIOziaV81jlzi5KstM/j59J1RhZVVk7qg4SK8XSP3Y6pZN+ElcGuwCi4YtYnbcc3uwMUvGogoLblZqs66xE0eh+LGuA5YXHIJ4xsCBjtXrqMnq0XrMn7QbxVq6gTanxVFhrHcCK9stsWzBxJbfsNEacn0+H6BnRTMiOR77gyNfjjoWx3VTN6dq4sVRYayrgEXgotq4CdtcSH6p5/dHSu+I24DoIDRmkKKkhrtzeJoQt0mdKd5lrvASYCG7TASHgPnl3gdn76ijsRuj6ZPiSUyrmHqHNm4/V9mpg1AY6zrGcisxax00DWhorvBZDUWdvujFvpwwmvsI5c5l+HGFdTtXYUmNdRmwwOfkZWEOB7LxPbv1PV+8exw1goD0R21HGparsEAY6+sYC19eeU+ebN3ars63qc0O6MCZFff+CO0YmVzQ51V8EIjUWB8ALNSGcnfaBGGC7Fbb5XkPcWFby8AH3dFJ2BuWIFyFBcJY36Vj0XZTMg/g0ZOZmCvc9pWxPwEsJsKcHKWdc9Pcf6/CkhrrupbOaPxNVNBZ+K9TncxGxBHEhLitqyxFCy5yQ5tzeISi0qdxJYx1BbD82ibXiA5TCqibt8Vt57SGKdvhNzWchNTMoaYAZQ4KsD4NWIevBLgRTTG3WRd4hVsDiNZ46TOExVUWZ5UY2r3KxtG2OaO5i4P0AxjL7S2FsNBIvsJtBtOqeK1hVmWhKaejJcDkdB++rdOwkhH7a2ssLpLr0NDIyeqctUuh//fkQwqZ1chmzZzIuAZhrA8CFqeRUmikNqHigN0EZ5bxRU13Flhu02pOhyL7+zALh+gV9PAAN6IEWN/AWHbUvsTtR2GUQ1sJrQmvMzNcnD8JR8oDBKir3O0eCuxrJ7e6HZ461cJYXwIsvheWNGkclhPTszqgPWmdMcwsiTDne6FVYFt2umd5kt5qOhaJw24NCGN9CWNxvzBXCsIW+ZoHc5bGVfbm2UKAM/o7jBnJw/dUTTCFYbxD2ZULY31JjTW8xxJHQkMsDmYcJeWzy26w70GdFrGWZZY3ujOSVk8ijPUdjAUUbFaF76B/aN4DTRkQw4P/7I0xv4EtzgAB1tw3HoJZm6kwR6kA61rGwrZOeS8LCEtQ9pvnYXy9+OtG49l4DlWmf2iSyPJqhaiqauvh4T+4BYqmAqw3PX8HAov3rbaY9XIoGfCuetCoqdKicaynCWw6PwWtLtf8uZTOb+0EU21dJHljv6bOamSt0P6hAOtKYE36JzhufORPYH8yNPW9TbPxFbvCe/iTE5Yskl2Z+WzsaJakRZokmVYTZgRoY9JIBVgXM5Zb2lbjWbh/tyMIuDGMqi4y2v5NmFKwSqwNn1tVyvHfWP4xEyr3uymfhUGSgwDramC5cDN0KO/HyRCulL5Nz6pb4ylLxY6sTmxew2HX6MmnUXOAjYta6lDGEnfDW56/QsdbXLpZjbe9PZG0ywgBhRcCUKnAZgvoR04NmUgJnjZ8DbB69F3fuBPV6aUesvaXSQSwxDbzrkvhHrBg9sPvAzzwOJA5RuminGoArWsgG0P2YgVdbDvHohGrftPnjRO0+DrQNHneENxuMSlsAqw3AeufcMaa7G3bUdDZgwfpTBBos3Ey0H3II37M3on+Azr7/jFAyeIpf1j9tesoK8tJp0mQ3iCMdQWwFoxlc6gsC2V7PlDaBedbxK7GypWaVOwYDBI3Dt1trNXxD5IYTYC5HmKlw3QsmdK5nLH8sD2Nrm4X34QrZ2Z2h6ENx506/4iy+DOEwavfPYCH41XD5CYafBIKY10OrHEmukqerkBxdplseg5WfA5OynXcMKhjjA79zgS1wXKezDOMq+CRewHW9YxlO3QlZecp2KQPtlypZqKKt0XODpoJx/UAQSbnBRNuActeBhpnh9fuC4cuaxLGup6xLGJoUQW+to3GjqHsPeoQl9i8S7RXRicfzntRYoDFEZRzr/MAqu6Ru6Yk6MQRZfhiaKmxrj8KwUUllC3O66yUKFrwBiSM1ilKAmzLm+OKUv10F+tqAPJ28dMN90InlqLAcXO4qhsQxvqmGou1LLfBcFFmcdSsFVKrW6Mm3TtsO88UVKyxooGFJ3CT5XmeNaPlj39/1DdqiPC8C7A+gbFYTseEkOWwvPOMpsObzUif8L6Gac/Z8OhpHGPlE/MNuFYOjO2cpPW30LqRgdVvYyxcjWl9WRVN9k0yQniDrt0SUY+oQorJ+6m3D/OHsGLqIjuFatZ/hjEarknG20IVF0YqwPqMo9Bb7FpmHT4NDfHVcCGsMPvFoyrv+5n3yviBiBOMBf6nSWSJTup29I62OUTMRQPIsvG3AQuicOXnj2tNtY2lo6GOJjCh0NByu7nJeYxidrsbJ2gis94VGRv892H/NUuKeiaZ3TT3pGWY4ruOQrdqq+QoDvt6bS3tWsK18xUMxfTa3G6sB5RffPQSAbt+xdpvimR40uJW1+1yQKdNIDYfRID1IUfh2OW9F9qb9/jkI6Gh1XTpm/MVygOa/Xj4c4wjq8O9qrfyvvO06WQIWqZ0rgZW/C42bjCX1W20dBK0eOidb314GPYsPHWPR6PZQjpUzMGLNcfMLT9U/wxWp3JIBVhvAla4H2vyo3AvM3dRaPa1+6tZ2/CB5L1SXhxXJJAXsQFsvR4TJO4bAzp1AgoEWJ8ErBOMNZqOaZodX2hzqybuq+lMjvekc8k9lNtFJGNhRwdUNZ1OLceKPeGBDRBgfUWN9YyxKDCr5Lea5lmWpPNTqkobf3fjs5KF86aoSt4jEQOsB3LikqcqmwHS+IEKiTH67hpL+TLdv+D1+GhbaD9SCG6GBhqeBoxmLFz5lZEAOtwHh7thkSbY2FG/EecnwPqYW+H4pNVmtTORleoiyZzwZEWnfKS1aGBhYZ5ETN8IsL4UWAB5u45MqBLbCy5nU+8DuaxEp+ijEC+FxW9GbwuwvoGxhuOwsMV0OQumsg6n9j6b+1qU2+UpYPHGy99aQiHA+hJgKcjSaYBCkVMNnd1mRFauiK1EdEQAy3Tj7mcB1o8HFrnbCwpovOXgL40qG6WHlVZeuVGHmJZOP6ZHCLB+OrD8LzBSFhamgbTdSkQr2wJl1FrF9QrR5tfgp0xfiivxY30csA5fmU5v7USIsIV8kXHoZB3HWBRfSj3K5MWMJcB6D7B+vQFYzo2HNuIkTdMiHUWnU8BCN1b+BmAJY30TsGZ12IrITgMrcWk3r3xkSuebgMWU5QJIZ07iM8BCmx/nXjUgjPV/zFjw3M5VnwKW91QoqbHkKPQ0BQtgtTR+GpONpTgfUAljfT2wYPfH2VeJwFIxwLJuLGA3VgVSYwljPT0KWzwK+yg3FkVVtuqllCWM9TMYy/4ta+WKPAonbqxaaixhrG1k1VgpqYjNhTStmkUtBhDG+qnK+9NXWXClFAEszPhI729oFQqw3gWsv/44YxUjY5lQN5b9i7w++OXAkib0TwAW65wl7YwOzh/10bpVAgIsOQo3H+zMaAXBK+ZogQpvTMxeTKDZr/8JCn4EY+Hi8jKL2F1Im8QofrJqXvztCLDeBaz8D+OKbnd56A5gBywbY+O2jwmwBFhb0HLx/sHAQrXBb8gBYayvANavP81Ydp4ZL3eh+6Ep2jTx8e3CWAKsTTW/pcFCFbQC2EcYkbchVyDAEmBtI6t1zAOBSykwFolkLK3OZX8IsH48sLBZyOFsXeiIDhAc7+2LKywB1k8CVsG3OxXW0+Ek7ipiQ44A67OB9Q4/Fjf9aGl5kJBlMLgmu79hREeA9ZMYC3OXrdAZCiz9H3tn26M4rkThD2s7saBHm5ZfZPve/f8/c6tsJyQQumm2DYSc0u5ohkCIxKNTx+VKamp457q7BVhQrCu/pSsDDG8rZPGGzvgUyuB/2boDrGbx1+M9Vt71E7c+FiTf+lU3dPSAVLgVxXoCWFl99K1jmkoVq9TdYwOw0N3QSLEe3t1Q3ftgbzJZubWhrCR/vS0ZbTMtFesJYPmxceaGsdBlP8eXu+vt719LD7AamfcngFVyYZlkf9t9FCI/qSZaKBbA+urXlBmT4fuHr+VZwGOTn2ogWPBY7wTW0LlPHlnOWfFLl5VnAZdRdbn0BcUCWF+brDLLyX7zAAceFZYXj67UGiw81nbAenzPe53Cyl6cyer/9xVXedpTGf0UW2RCKNYbgcWS5aaRO9fK73liZg453fdl4bEA1teSVZ6sXSZXrGgWTwsbJzuJsSe5BVe4YfW9FKtW0qsmxcXM6DzZsJ+mIBaueA1pB3gsgPVN6wzZ90+eElaeDO/z/N862PD//9R5rflu6TpZpbeNLgWp8AlgNepuKD9onoyS4jSWPPb/UPTeTpPC+KnedbSmsK0gB1jNwLLDUzRLjZMNC0WLGKcT6Powb9kkC0Kx3k2xcvqLKQ/accKPE1oXA+gGnmw4Dj9sxxUmU7yZec+NpIWsEGe8DeOEQzHNp8t50LbSVYD1bmDVjZoyende/MyDDWdTD2PTXA2w2oFlh2ap5iuuxsono5V4aCa90vVSheROA56c9G0vDWC9nWJNNarPlUmtn9Ms89b74QDrzRQra1aXzDW0eABi1/7SANb7eaxsqMoozcuphi6UPerWyAOs91Osgg1PNjwbwurIccUHXRHAej+PNdTxYHlKq6tBNr73bRoZANZuFKt+sc2DDTlZjGmeAAAKXUlEQVR4pqG19oFXA7DeUrFq0X3OtX0s4wDrLRVrGmk4Djisrt4iFUKxWiwWH6lYf4OCN1Ssp2PcCYDVIv68nGI9OAAWFAuKtSXF+nvnitUDrGZgQbEQUCx4LCgWFGvPAY8FsFqBBcVCQLHgsQAWwNq1eVdu16EkwGoDVvjcdQQoFsBqAha6G9qAddg3WAZgNYoDFAsQQLEAFhQLYEGxABYCigWwoFgAC2ABLATAQh0LYEGxANZuwfoDDAAWwAJYm+luAFgtwELbDMACWAALYAEsgAWwEAALYAEsgLXjOAAsgAXFAlhQLIAFxdo7WKAAitUCrCMoAFgAC2ABrH2DdUTbDCgAWAALYG0j0PMOsKBYAOu35CQ/Gu3qwZSSA1gA60fhkhK+DJvzvToDyLggY5k9tzxoUggGYAGsq1KVhB8HF/J/vk9mdlDGOpm1HlQTjp237qceC+WG/YClPGuRVCGkoGTH/1IjWU7xVNZO6HKwp4NDn0awhsFBsQDWlUh+sF1yZkp8lPd8zXFGEFddOB1MwhJn4T+AhU3oh4PlpJiHSuYhiVCQBi34cL0duvyKo2NeLi8jEE4xAawtgdVNg5qLVRbuEcadLNSZB0/07flCNYnZuT83iclyd4FlANZzwBpEGIPMjj1TknaZ8Fwa5TAI1hd2WyufoCsT5k7FOgKsZ4Cl56t8aa2+WXeUuhPC4G138RoRxSlxsMKs6c5gfbpTsQDWs8HKP6w3N+tOTPeCNVyAlaL3+YhfB4csvbhPsQTAej5Yn3qw6Xaw3P2p0F0UTBOtHEgx5bXPWPoMwNoqWJSR1A/AMnebd7X2UUOCdYVrTpIKYG0WrDQMN5ks8x8Uyxgx2Lh2WYlev3JOI+0gDcB6HbD0z8CqimVS0FqrcCpsuRRUfqnIlHOBPJZz/C/jUj7Em3p5U9nQH4bfn3Wp/C2kk74FrqZLeuFMtpRdte7l2GB7B7A2CpZRduBclITP1S0bRU1NSUSbJ7X6KPmnjZFMT4xREEKq8/nNvk+fIhKYIfZGU77LRU/6ZD5cP5i/Rnt+O2/buDOHJ6+BlbiECrA2A5Y9WxXaaPLivpMhpSA7W8qV9LNymwHplPSWa11C9ASSENo4Smw9v1tJ0rB8wmA7RUxqqY0J1naaPsk7y34UQBNELHVZG6Uatayku2uXOgCszSoW/bJW5Uwly2/NlS0uKhg59OOvT0cDGyUuNxiTV3K6vjvFzhewIvcr8FFazU1H+7ptU/6lhGcFzCIocknsO7AiwNqQYok0RlAdpSJKbXGWkEiPOsPtKuG002fFrI5FhlubU4U8m39WPFcXgDNU6NvkcqtGyb7zOcV67Rjfr8CyAGtLYFk/Rfl5GQu3WCcmWo3NygC6lDcLWKQycdZKpW0Ba6iwqQzClAAvyp+GjD9lV5YuksSvwEpIhdsCK/ZjkGFyRZEWutJTcjP9cLE9XcoN5MrmhS9XwCpLgJxCxRyjeKVKlgQ7fV46XF0VZhW8DyxQ8BTzPo3lrov/M1RIoIQxvNg/W8JVsOKypBmLx7Lr55KDNuulLU0JMYRh5sIuyg10HQDrdcCSP6pjFdjCUipYRTS3eQ6+k2Mh6wpYfUmF3XT+2M3C87lMqX5dJmXprL1WeeceLn0fWB+g4Alg2RWwfFi0B+TygnFBcSnLcoHAXQerlBtOYNlOLHsJaaHYdZfNOZQ06Xu6waort+wQUuG+thmA9ZqKpWa+hwvywtvenMBavtv4JVj97KiZbdxc6pLmrlIyWVf2dMi2RXNnPxYoeHqBtCadpS86q4az3woTWPRuvayPz8GihYBaKxz4NbB4yyYOq9vTxhQtA1hb3SvMJQOuXM01SNGqTbozVRrB0nZWQuCCwQIsbefnSpzO2OAPciUV8iJB22Gty4uuKdt6gLVhsEh15vlLcVUrLDoZuhlYXGCQs93lJVh0dH4uXepYRM9FOx8lTVZGdlkrC0NVO+Hv6iCFx2oC1vHHYFHy606bepF70F2cl9enVJjqPYKCGxWMIYvUxSVYBFE8ncuXfvYUB3teFiMkc4thogVCd3azkFO0HtX1ei3M+2bB4q3o0s/utM8IUKLKRfnyS5X0xhs0iatf7Lh7qaWgJWDqzsByYhjPpXzFiROe7dNCV2KtjdIidBi/faqeenJubryrCIq1WbCIBr6jVAi+66rkOSO9tb3QWkS+H37CI+9NJ9lF733syXf3dgkWfZL1SfJiMo450/AN9laGXJXllgm+J3UsQaTe0teqzOy04TN0032FUp+HMlCs1wKL1EavFiTLsxXs0OkpjyXd5X6sKGsB3pgg+z5nyPxgmNK3lwukLoT5uXTkBpnTuYp6cVdD1wvRd7k8NuVG42Tp1qJjosu9XLl6FipYl9E5KNaLKZb54vWV+rhZKZmbxXOITBzCytnOPsg2XOe2htySRYT1i5tUU36cQzlGhMkUyFvx0x2c6Fbiy7tsAdYzwPqNu0+7uWCkcfv5W345yym+w19O7c7Lg7oczC3N+V7oTNZqwGO9IVjO25PHIZPftXn8gxO2u+veDYC1UbA+ZTXWpZfd3/l13+Lo1F23x0KxNgsWlzYpYVGoznr1kOfVQLF2AFZexXnPt+0MfXg1rtA2s1mwKIvxfYVSnjUCAiyA9St4mc+XDIC1cbBeNQBWI7A0wAIFLcCSAAsUtABLACxQALAAFsACWAALYCEAFsDaRHwALIAFsAAWwNoMWOhuAFgttjABFsBqpFgHUACwABbAAlj7Bksqs2uPpQTAagOW3jdYGmC1qbxL6fbMlZMSYDUBS++7IQtP424Uf45C71iynEThvdmyUIbduiwTBDJhK8nSQqe9gpVIsJAJ29l37XapWeTcIVgNJeuDydolV1pKOKyWZAmp0+40yyTmComwNVl7c/AmgKuHZEOp9mS0eBSi1OCqPVkv+9CONuUrkit9BFcPIOvAZOmwB9UyLkiWK6wHH1N1+ChovbuLN+WRSscD5OpholXQItl6V90qz8TlJPgBrh6JVrZaxJYK6Q3tFj+GuWAFqp7g4o/MFi8SQ3LmTZSLx1vwMpCpOsJbPS0jHo8ZraJc5h3yn1I8+uSIFPjslEhwyTGYLh5bsz2ZYp0KGSmZqToc/gCrl1AuXYSLpEuFkLa0XnSJZUrVKU1H1iow9WJpsXguXQBj9Xpd+coiVT16zeYl/5FUgatXS4uTdC3ly73YupGBmolUNeofQOrlteuD+DqbA6gyYFnCzFP0qShUNecj+DX1YfW3IU9/yHwdj2pUBTkSVkTMPEqdmKYwKZQ6TvHBRMGlbzU5Vr5OKXJETCodMmRFyqqazeJmKZqiDFl1eZZmyNpUE3KNStNHtVIg6h3065B/0KIV6qhOWXKcn6sKASFrWkEuLCIVXmYvTH9TWZFUPsE8A5+kqeJ0AFHvKmF/lowtjFj+f4nGZIa+isJUAXOR6U44YbW3I8L+HE7xsYjjbfGxFocTSEWcwBOiEHfG3DL+HS8YIpIOTMto8hkFZCa50SAYBaNgFIyCUTAKRsEoGAUDDwAnp7LzKmvPVgAAAABJRU5ErkJggg==;" vertex="1" parent="1">
          <mxGeometry x="1454" y="-308.5" width="90" height="60" as="geometry" />
        </mxCell>
        <mxCell id="8eVqctKR0tM4HhJl3EsU-43" value="&lt;p data-pm-slice=&quot;1 1 []&quot;&gt;верни пользователя по username&lt;/p&gt;" style="text;html=1;align=center;verticalAlign=middle;whiteSpace=wrap;rounded=0;rotation=0;" vertex="1" parent="1">
          <mxGeometry x="1259" y="-210" width="180" height="30" as="geometry" />
        </mxCell>
        <mxCell id="8eVqctKR0tM4HhJl3EsU-45" value="" style="curved=1;startArrow=none;endArrow=block;exitX=0.5;exitY=1;entryX=1;entryY=0.5;entryDx=0;entryDy=0;exitDx=0;exitDy=0;exitPerimeter=0;" edge="1" parent="1" source="8eVqctKR0tM4HhJl3EsU-31" target="8eVqctKR0tM4HhJl3EsU-43">
          <mxGeometry relative="1" as="geometry">
            <Array as="points">
              <mxPoint x="1499" y="-190" />
            </Array>
            <mxPoint x="1614" y="-135" as="sourcePoint" />
            <mxPoint x="1454" y="-180" as="targetPoint" />
          </mxGeometry>
        </mxCell>
        <mxCell id="8eVqctKR0tM4HhJl3EsU-46" value="" style="curved=1;startArrow=none;endArrow=block;exitX=0;exitY=0.5;entryX=0.25;entryY=0;entryDx=0;entryDy=0;exitDx=0;exitDy=0;" edge="1" parent="1" source="8eVqctKR0tM4HhJl3EsU-47" target="8eVqctKR0tM4HhJl3EsU-25">
          <mxGeometry relative="1" as="geometry">
            <Array as="points">
              <mxPoint x="1109" y="-340" />
            </Array>
            <mxPoint x="1239" y="-340" as="sourcePoint" />
            <mxPoint x="1169" y="-400" as="targetPoint" />
          </mxGeometry>
        </mxCell>
        <mxCell id="8eVqctKR0tM4HhJl3EsU-47" value="&lt;p data-pm-slice=&quot;1 1 []&quot;&gt;проверка пароля&lt;/p&gt;" style="text;html=1;align=center;verticalAlign=middle;whiteSpace=wrap;rounded=0;rotation=0;" vertex="1" parent="1">
          <mxGeometry x="1139" y="-400" width="110" height="30" as="geometry" />
        </mxCell>
        <mxCell id="8eVqctKR0tM4HhJl3EsU-51" value="" style="curved=1;startArrow=none;endArrow=block;exitX=1;exitY=0;exitDx=0;exitDy=0;entryX=1;entryY=0.5;entryDx=0;entryDy=0;" edge="1" parent="1" source="8eVqctKR0tM4HhJl3EsU-25" target="8eVqctKR0tM4HhJl3EsU-47">
          <mxGeometry relative="1" as="geometry">
            <Array as="points">
              <mxPoint x="1319" y="-340" />
            </Array>
            <mxPoint x="1319" y="-413" as="sourcePoint" />
            <mxPoint x="1329" y="-370" as="targetPoint" />
          </mxGeometry>
        </mxCell>
        <mxCell id="8eVqctKR0tM4HhJl3EsU-52" value="" style="curved=1;startArrow=none;endArrow=block;exitX=0;exitY=0.5;entryX=1;entryY=1;entryDx=0;entryDy=0;exitDx=0;exitDy=0;" edge="1" parent="1" source="8eVqctKR0tM4HhJl3EsU-53">
          <mxGeometry relative="1" as="geometry">
            <Array as="points">
              <mxPoint x="869" y="-230" />
            </Array>
            <mxPoint x="1131.5000000000005" y="-266.4999999999998" as="sourcePoint" />
            <mxPoint x="856.4999999999993" y="-266.4999999999998" as="targetPoint" />
          </mxGeometry>
        </mxCell>
        <mxCell id="8eVqctKR0tM4HhJl3EsU-53" value="&lt;p data-pm-slice=&quot;1 1 []&quot;&gt;вернуть пользователя&lt;/p&gt;" style="text;html=1;align=center;verticalAlign=middle;whiteSpace=wrap;rounded=0;rotation=0;" vertex="1" parent="1">
          <mxGeometry x="919" y="-255" width="135" height="30" as="geometry" />
        </mxCell>
        <mxCell id="8eVqctKR0tM4HhJl3EsU-55" value="" style="curved=1;startArrow=none;endArrow=block;exitX=0;exitY=1;entryX=1;entryY=0.25;entryDx=0;entryDy=0;exitDx=0;exitDy=0;" edge="1" parent="1" source="8eVqctKR0tM4HhJl3EsU-25" target="8eVqctKR0tM4HhJl3EsU-53">
          <mxGeometry relative="1" as="geometry">
            <Array as="points">
              <mxPoint x="1129" y="-220" />
            </Array>
            <mxPoint x="1129" y="-248.5" as="sourcePoint" />
            <mxPoint x="1069" y="-203.5" as="targetPoint" />
          </mxGeometry>
        </mxCell>
        <mxCell id="8eVqctKR0tM4HhJl3EsU-58" value="" style="curved=1;startArrow=none;endArrow=block;exitX=0.5;exitY=1;entryX=0.5;entryY=0;exitDx=0;exitDy=0;entryDx=0;entryDy=0;" edge="1" parent="1" source="8eVqctKR0tM4HhJl3EsU-59" target="3">
          <mxGeometry relative="1" as="geometry">
            <Array as="points" />
            <mxPoint x="683" y="-195.42" as="sourcePoint" />
            <mxPoint x="619" y="-195.42" as="targetPoint" />
          </mxGeometry>
        </mxCell>
        <mxCell id="8eVqctKR0tM4HhJl3EsU-60" value="" style="curved=1;startArrow=none;endArrow=block;exitX=0;exitY=1;entryX=0.5;entryY=0;exitDx=0;exitDy=0;entryDx=0;entryDy=0;" edge="1" parent="1" source="4" target="8eVqctKR0tM4HhJl3EsU-59">
          <mxGeometry relative="1" as="geometry">
            <Array as="points" />
            <mxPoint x="707" y="-255" as="sourcePoint" />
            <mxPoint x="568" y="-108" as="targetPoint" />
          </mxGeometry>
        </mxCell>
        <mxCell id="8eVqctKR0tM4HhJl3EsU-59" value="&lt;p data-pm-slice=&quot;1 1 []&quot;&gt;вернуть сгенерированный токен для пользователя&lt;/p&gt;" style="text;html=1;align=center;verticalAlign=middle;whiteSpace=wrap;rounded=0;rotation=0;" vertex="1" parent="1">
          <mxGeometry x="527" y="-220" width="180" height="30" as="geometry" />
        </mxCell>
        <mxCell id="8eVqctKR0tM4HhJl3EsU-62" value="" style="startArrow=none;endArrow=block;exitX=0.807;exitY=0;entryX=0;entryY=0.5;exitDx=0;exitDy=0;exitPerimeter=0;" edge="1" parent="1" source="3" target="8eVqctKR0tM4HhJl3EsU-61">
          <mxGeometry relative="1" as="geometry">
            <Array as="points">
              <mxPoint x="689" y="-90" />
            </Array>
            <mxPoint x="698.9999999999999" y="10" as="sourcePoint" />
            <mxPoint x="964.84" y="-76" as="targetPoint" />
          </mxGeometry>
        </mxCell>
        <mxCell id="8eVqctKR0tM4HhJl3EsU-61" value="&lt;p data-pm-slice=&quot;1 1 []&quot;&gt;получить меню&lt;/p&gt;" style="text;html=1;align=center;verticalAlign=middle;whiteSpace=wrap;rounded=0;rotation=0;" vertex="1" parent="1">
          <mxGeometry x="758.8399999999999" y="-91.5" width="90.16" height="30" as="geometry" />
        </mxCell>
        <mxCell id="8eVqctKR0tM4HhJl3EsU-64" value="" style="curved=1;startArrow=none;endArrow=block;exitX=0;exitY=1;entryX=1;entryY=0;exitDx=0;exitDy=0;entryDx=0;entryDy=0;" edge="1" parent="1" source="5" target="8eVqctKR0tM4HhJl3EsU-63">
          <mxGeometry relative="1" as="geometry">
            <Array as="points" />
            <mxPoint x="904.84" y="-44" as="sourcePoint" />
            <mxPoint x="761.84" y="-28" as="targetPoint" />
          </mxGeometry>
        </mxCell>
        <mxCell id="8eVqctKR0tM4HhJl3EsU-63" value="&lt;p data-pm-slice=&quot;1 1 []&quot;&gt;вернуть меню&lt;/p&gt;" style="text;html=1;align=center;verticalAlign=middle;whiteSpace=wrap;rounded=0;rotation=0;" vertex="1" parent="1">
          <mxGeometry x="774.8399999999999" y="-53" width="84.16" height="30" as="geometry" />
        </mxCell>
        <mxCell id="8eVqctKR0tM4HhJl3EsU-66" value="" style="shape=cylinder3;whiteSpace=wrap;html=1;boundedLbl=1;backgroundOutline=1;size=15;" vertex="1" parent="1">
          <mxGeometry x="1234.8400000000001" y="-110" width="60" height="80" as="geometry" />
        </mxCell>
        <mxCell id="8eVqctKR0tM4HhJl3EsU-67" value="" style="curved=1;startArrow=none;endArrow=block;exitX=0.818;exitY=0.979;exitDx=0;exitDy=0;entryX=0;entryY=0.5;entryDx=0;entryDy=0;exitPerimeter=0;" edge="1" parent="1" source="3" target="8eVqctKR0tM4HhJl3EsU-78">
          <mxGeometry relative="1" as="geometry">
            <Array as="points" />
            <mxPoint x="639" y="135.93" as="sourcePoint" />
            <mxPoint x="695" y="142.43" as="targetPoint" />
          </mxGeometry>
        </mxCell>
        <mxCell id="8eVqctKR0tM4HhJl3EsU-69" value="" style="curved=1;startArrow=none;endArrow=block;exitX=1;exitY=0.25;entryX=0;entryY=0.25;exitDx=0;exitDy=0;entryDx=0;entryDy=0;" edge="1" parent="1" source="5" target="8eVqctKR0tM4HhJl3EsU-68">
          <mxGeometry relative="1" as="geometry">
            <Array as="points" />
            <mxPoint x="1044.8400000000001" y="-80" as="sourcePoint" />
            <mxPoint x="1164.8400000000001" y="-82" as="targetPoint" />
          </mxGeometry>
        </mxCell>
        <mxCell id="8eVqctKR0tM4HhJl3EsU-68" value="&lt;p data-pm-slice=&quot;1 1 []&quot;&gt;SELECT *&lt;/p&gt;" style="text;html=1;align=center;verticalAlign=middle;whiteSpace=wrap;rounded=0;rotation=0;" vertex="1" parent="1">
          <mxGeometry x="1083.8400000000001" y="-91.5" width="61" height="30" as="geometry" />
        </mxCell>
        <mxCell id="8eVqctKR0tM4HhJl3EsU-70" value="" style="curved=1;startArrow=none;endArrow=block;exitX=1;exitY=0;entryX=0.014;entryY=0.412;exitDx=0;exitDy=0;entryDx=0;entryDy=0;entryPerimeter=0;" edge="1" parent="1" source="8eVqctKR0tM4HhJl3EsU-68" target="8eVqctKR0tM4HhJl3EsU-66">
          <mxGeometry relative="1" as="geometry">
            <Array as="points" />
            <mxPoint x="1159.8400000000001" y="-83" as="sourcePoint" />
            <mxPoint x="1223.8400000000001" y="-83" as="targetPoint" />
          </mxGeometry>
        </mxCell>
        <mxCell id="8eVqctKR0tM4HhJl3EsU-71" value="" style="shape=image;verticalLabelPosition=bottom;labelBackgroundColor=default;verticalAlign=top;aspect=fixed;imageAspect=0;image=data:image/png,iVBORw0KGgoAAAANSUhEUgAAAlgAAAE6CAMAAAD9bNwiAAAABGdBTUEAALGPC/xhBQAAAAFzUkdCAK7OHOkAAABUUExURUxpcYhyVEg1KzonHVVBNlA8MWCkWG90TWFfQks3LYlxU1qiUU+VTkQyKFeiUVieVIpyVIt2WEs5MFSfUIemc01vQleqUEmcSkMtIo1xUKWkhVCkTZz3dCkAAAAWdFJOUwBoxexUeP0aM6DkUfXcftyPuvix+PVz2NC1AAANM0lEQVR42uyda3eqOBRAK8+gUpW6rK3//38OjwSSEJRIsL3TvT+NingH9jrn5CShb28AAAAAAAAAAAAAAAAAAAAAAAAAAAAAAAAAAK/knUsAKyAOgosA4dllhCxYIxNmHzlXAYJzyPbkQgifCfeXzw8uAwQm/7hcPglZEL7CqsX6pMqC0EPCSyPWfselgJBeHS6tWIQsCJoHW68asQhZEK5ub+qrhltt1oGQBaHGg9KrVqw9yRACe9WK9blnYgcCIA69V51YlFkQwqshXimxMAsCxKvLZSzWAbMgWB4cxKqHhkztQKg8qIv1ScyCJePBy2VCLMyCEH0GxSAWczsQzitdLOoseI73sVeGWHsmd+AJdg6vDLGY3IFnvDpcHonF5A4EKbBGYmEW+OL2yhaLyR1YXri7xMIsWF5gucRi3R8sLrCcYtEohcWJ0CkWBTzMTYSTXrnEosyCeYjDxUssyixYmAgnxKLMgjmJcH/xFYsyCx6PCO8kQmNBlmEWCx1gQSKcilh1mcWFg/uJ8G7AmhSLZAj3+bgbsKZSIav+YFHAmoxYjAxhScCajli0SeFewHrg1Z2IRZsUnmw1PBCL+h2eazXcT4XsNITJgPVxWRCxPnlWNzxZYd2PWNTv4OZhhfVALEIWPBmwHohFyAJXhbVYLLqk8FzAeiQWIQtGfFyWi0WVBTbiEEIsQhZYvGchxPqk/Q7evYY5YjFjCP6l+wyxmDEEs3QPJNbnnpAFvqX7LLEIWeBbus8RiyYpDOQfl2BisRUMvDPhHLHoOIB3JpwlFnsMoR8TXgKKRfcdVIl1CCkWE4Yg2WVBxaJ8B5kJA4tF+Q5+mXCeWLSywDMTzhSLmWjwajbMFeuTcSH4NBtmi8W4ELxKrLliscQBPOZzPMQiF4JP7T5XLHIh1LX7JbxYjAvBp3afLRa5EHxq9/li0Xynds9WEIvmO+xWEYsii9p9FbFY4fDnSyyf2n2+WCxQpnZfRyw6WX+9dl9JrD2X9o/X7vuVxKJ6Z1C4ili0SBkUriEW1TtirSMW1TvdBsSCf0csNkTTxlpHLIaFiLWKWEzqIBZiQWC8Fs14iUUj60+zQywgYgFiIRap0AcPsZjT+dNiXRALEAsQC7EQC7EAseD/KNYNsYCIBT+HoI8FiAWIhVh/m3w9sZgr/NNiHRALEAv+HbEyxIIVxPpYSyzWvP9t1hOL7V9/mnfEgjXYrSUWW+z/uFh7xIKf7zfwGCP4WbHoNjAsXEcsaneGhauIxZVlWLiGWNTuFFmriEXtTpG1hlj8yRPwKrKo3WEuYr+CWPxZOfB6vi3rkmGVXEh7FFZpOLAYC+YXWYfwYnFVwWtWhy4WrJIL6WKBx7jwEFgsMiF4jgvJhOCTCw9BxaLtDjIXfgQVi7Y7eJbvN9ru4MPcVtaNMSGsUb7fWOMHflVWOLEIWOAdsm4ELFijyrqxsAF8Q1YgsXhmA5gdh0MQseg1gMWcNQ6U7uBPCLEIWPDMwPBGhQXezJgxJGDBM/V7tlQsAhY4Q1a2TCwCFjgRC8VivQw8Vb8/qN0zmu7wXP1+PxEySwjP1e83dqnCGsnwRuUOzybDe39c50blDk8nw8NzYrE1B55OhhnLsGDByDDzF4sRIcwos6a8ypjLgRXMmhaLVVjwfJmVZec9nQZYErKcZk2KRYEFc3EW8OcJsSiwYNHQ8HzO8AqW4dhnmLnFYooQ/MzKRmJ9n+mMwlJGcztOsfAKlprViLWn0QDLzTKTYfb9bRdZeAXLY1Yt1ndmecWAEBbHrEasM15BYLPqEuvbKLLIgxAiG7ZiabkQr2CZWZkuVh+yDvQZYBFqFXxTYg0hi347LDarmzc8d2K1IWvPzgkIZZYUqzGL4SCE4T3LMiXW9/lMeQXhSvhBLLyCcGb1Xn3TZoCAfBCwYJWQpcQ6UbhDyKHhmUwIa+ZCOqMQlHcpFpkQ1iiyzlwJCIroiiw2p8Iq1Tu1OwQGsWAVTogF6w0LEQtWGRYiFqwi1oYLAYGHhUQsWIVWLNY2wCpikQoBsQCxALEAgnJiVAiIBYgFf5tNs77hyHWA0AhxRCwAAAAAAAAAAAAAAAAAAAAAAACA/webCcT4KaZi5nEAb2L75Wa7Pdl7yLbu4448oRlGJFtLE+PVJjccnJLwSNQCi7zOb0clzHGz2dXZ7XjqFTLUqo9Vh56Om+OxPk4ext/BgDv5sNcjz8VxIhptukOFMk2JxkUEB51GR0O2kzLLjHDd27nl5JY9/eAaGjoUelNpz4xZrVjb3I52Ry4izBRLpb2vzT2xZLSjyoLZYsm3DY3GYm3GxwDcFUtGI+ODkVi7LRELPMVS7dP8jlgCscBXLEfImohYFO8/QX73pRkjxOTkm3pfJMn0JEqe3zt7PnH6SbHyrV1BuWusLY9pfhlJkbS3JimiKEqHxk/zMkqcX0mjqKyJCuE6XfelNCqrqnSfQKTNuaOi/1DYn7ZnT+aLJUPWVkyK1TW2CFgvCVB5fQ+v12ta/2caXzu6uyki+bIcuZMX14FIjE/XnC8p1RHF6PvDZ9c4rSNXLorS+em12swWa2N3HGyxNjTeX6VVGlXKpSQabmbSRKvh5lpm5WnzpbKOKfLjPsbl6nTXVBTxcILCzGnNT5VFWqhDqrI+U6l/Wn9cqHNZMXFarFH/0xRLNF3ULZPQLxGrlynVPbjGSaK/vEajL5VJE2akjHGq7l3/rajUv39NjSwaS1eN0KTCWvPLcSqa08sQWubzxMqdYn2djsdTTTtZzSOaX4UoVIypiqS5l92trpqYkQiZ10wxmrcida8L8/M6BCq36u+/9eeLNDcacyr5Wsifiyt1RPupqqzE+Nv3xDo5xfqaXl0Da6rV3rxYJRwZROqYIU2JrVtbGLlRVlvaGzLMqPPJSk2YAa8XNW29ShNDpdT6xxle3xGrcIq1bdDUIhm+iMKsghLrVrYfx0KPN3o1Ls0qrPQ6mJhU5vkSw7O8MacSprZWeDPf8RZrkzedi82xj180SF8oVmKJMbxu66Y40T2q9CbA6NZH1kCwMF8Xhqfdp/1LUVmDSFkFJs+LNYwK+9U1mPUTYnWvteRjiNVqZlTT3a3vD5CvNTlSs/yPTLFS49eLUaWf2KMH3xrLaJBuMevnxEqtmxvpr5PRILE7fvjCSKz2K6VxusoSS+iJMTaaonlXZXmMCqf7WMMaCPZU/AKxjChSjMXqcmHhI5b2c82vxbmRds27HnmKdafz/uZcAwG/QaxoLJbwE8tRckX3xOoCYj5DrM3DucI+qpELf5tY5VisLlnNFqtrMPTJr9J/LIlHqVAWWXPEslfD5y6xToj1eyNWaYoVeYkljFGk2V5YJtZJ25SjpcbcYR9i/YBYiUOs2KixKrFALNmsbxuoeT+7o0uXPifWxt7chVj/UMRK7baSMmn2qFD14suoiJr5H2NxRDxeDNF+vXpcvMvEJ2aJRfH+S8QappnH62C6HoGYLVZ9xDDDXY1PZU06J9bppsQav+8SS9ZYzEX/NrHkrRf2qHCYwnksllwZc43LIrUaSo6AaLbmJ8VyLGd3irVln85vESsyCupiNCvcVtzp1CDRKVZe1GcUYrw0WYzXyUTW8oaNs0gSkxJ9OfpYBKzfJ1bXDtV7TYV550d10lispsoq7vxj9F8XleXx0bU3UMYra0HidmSRoMJ6HZGXWPLWDyV3s7JF7xA8FCtv1xRG7lmVblyozTwW1gJUWSQZm+nzjcur/lkN2ohyy5OMXkZeuUaBhZXa7FTXi9FEn3iUGe0FXHqVpNaFFmniSIfdp/0Zm5fmOr/+qUXHbhNPvuse3DBawjcsZth1B25OePUyqxK5RrRM5W0S7YL2dj1pd0AhF/4luRai2qWBiehWiFbawry0kKuNo+4L9RuVWqAqdPP6YWEZFam2zyuXa6Sj+uz1j8dGvEqOxqLQrVpx3Gpm/I/thgdiyQPl6xPzzy+pr4abHDeBIYn7N+Jm6CfK4XVfVwnVLoibo+NC2CWSttBdX/oua3Jji4/6ba1fnupn13ZqqArJsd74ZD8CMt9OHMjK5BeJVV2rjq6f3g33q0oVOnV0qfoDhsInifSV8lbtrQ5vjy/771f9YG/YZ6Zt19A3wqdKx0rb5NgPCO3Hjx4dD63NT1trRXJj3yZHq1elQtHTZarhZbsMPa/fbnYki+ZAo4BJ0qKoqyQ7UiTJcEbjfEI/QZNu4ziO4/EmHXX6+uzFRjj/ubnO1P9Y+1muH8zd/t+TRO0eoNrd2k4VnbjxsNSrUm82qM2FCRcGFlFXWObWalGO1zQA+HtlrbiyNlQAPJMHY3v5guxs0V+CJcNQe05ZiVVxbWCJWOV4u0SbCsmEsDhiWYV6815EtwGW1e7jB26low0UAL50vYVSfx5lfC3xCkIMC1u12smfdv1CyYgQAiRDNUP4X3t3jAIACAIAcKig/v9hEQyi2fHuCSKCqFiz6nHkFS0167nSybUuEaGpNdzrmv40AwAAAAAAAAAAAAAA8AkJ29N7TH6c0AAAAABJRU5ErkJggg==;" vertex="1" parent="1">
          <mxGeometry x="1209.8400000000001" y="-100" width="110" height="57.57" as="geometry" />
        </mxCell>
        <mxCell id="8eVqctKR0tM4HhJl3EsU-72" value="" style="curved=1;startArrow=none;endArrow=block;exitX=0.145;exitY=1;entryX=1;entryY=1;exitDx=0;exitDy=-4.35;exitPerimeter=0;entryDx=0;entryDy=0;" edge="1" parent="1" source="8eVqctKR0tM4HhJl3EsU-73" target="5">
          <mxGeometry relative="1" as="geometry">
            <Array as="points" />
            <mxPoint x="1178.8400000000001" y="-10" as="sourcePoint" />
            <mxPoint x="1114.8400000000001" y="-10" as="targetPoint" />
          </mxGeometry>
        </mxCell>
        <mxCell id="8eVqctKR0tM4HhJl3EsU-73" value="&lt;p data-pm-slice=&quot;1 1 []&quot;&gt;верни все меню&lt;/p&gt;" style="text;html=1;align=center;verticalAlign=middle;whiteSpace=wrap;rounded=0;rotation=0;" vertex="1" parent="1">
          <mxGeometry x="1114.8400000000001" y="-42.43000000000001" width="61" height="30" as="geometry" />
        </mxCell>
        <mxCell id="8eVqctKR0tM4HhJl3EsU-75" value="" style="curved=1;startArrow=none;endArrow=block;exitX=0.145;exitY=1;entryX=1;entryY=0.5;exitDx=0;exitDy=-4.35;exitPerimeter=0;entryDx=0;entryDy=0;" edge="1" parent="1" source="8eVqctKR0tM4HhJl3EsU-66" target="8eVqctKR0tM4HhJl3EsU-73">
          <mxGeometry relative="1" as="geometry">
            <Array as="points" />
            <mxPoint x="1223.8400000000001" as="sourcePoint" />
            <mxPoint x="1159.8400000000001" as="targetPoint" />
          </mxGeometry>
        </mxCell>
        <mxCell id="8eVqctKR0tM4HhJl3EsU-76" value="&lt;p data-pm-slice=&quot;1 1 []&quot;&gt;можно также добавлять новое меню через csv но с ролью админа&lt;/p&gt;" style="text;html=1;align=center;verticalAlign=middle;whiteSpace=wrap;rounded=0;rotation=0;" vertex="1" parent="1">
          <mxGeometry x="1304.8400000000001" y="-72.43" width="180" height="30" as="geometry" />
        </mxCell>
        <mxCell id="8eVqctKR0tM4HhJl3EsU-77" value="order-service" style="whiteSpace=wrap;strokeWidth=2;" vertex="1" parent="1">
          <mxGeometry x="805" y="142.43" width="120" height="47" as="geometry" />
        </mxCell>
        <mxCell id="8eVqctKR0tM4HhJl3EsU-78" value="посчитать доставку&amp;nbsp;" style="text;html=1;align=center;verticalAlign=middle;whiteSpace=wrap;rounded=0;rotation=0;" vertex="1" parent="1">
          <mxGeometry x="679" y="120" width="69" height="30" as="geometry" />
        </mxCell>
        <mxCell id="8eVqctKR0tM4HhJl3EsU-81" value="" style="curved=1;startArrow=none;endArrow=block;exitX=1;exitY=0.5;exitDx=0;exitDy=0;entryX=0;entryY=0.5;entryDx=0;entryDy=0;" edge="1" parent="1" source="8eVqctKR0tM4HhJl3EsU-78" target="8eVqctKR0tM4HhJl3EsU-77">
          <mxGeometry relative="1" as="geometry">
            <Array as="points" />
            <mxPoint x="775" y="162.43" as="sourcePoint" />
            <mxPoint x="826" y="192.43000000000006" as="targetPoint" />
          </mxGeometry>
        </mxCell>
        <mxCell id="8eVqctKR0tM4HhJl3EsU-83" value="" style="curved=1;startArrow=none;endArrow=block;exitX=1;exitY=0.5;exitDx=0;exitDy=0;entryX=0;entryY=0.25;entryDx=0;entryDy=0;" edge="1" parent="1" source="8eVqctKR0tM4HhJl3EsU-77" target="8eVqctKR0tM4HhJl3EsU-88">
          <mxGeometry relative="1" as="geometry">
            <Array as="points" />
            <mxPoint x="947" y="172.43000000000006" as="sourcePoint" />
            <mxPoint x="962" y="198.43000000000006" as="targetPoint" />
          </mxGeometry>
        </mxCell>
        <mxCell id="8eVqctKR0tM4HhJl3EsU-87" value="&lt;p data-pm-slice=&quot;1 1 []&quot;&gt;сделать параллельные запросы в Google Maps API для нахождения кратчайшего пути из филиалов ресторанов к пользователю&lt;/p&gt;" style="text;html=1;align=center;verticalAlign=middle;whiteSpace=wrap;rounded=0;rotation=0;" vertex="1" parent="1">
          <mxGeometry x="1559" y="15" width="180" height="71" as="geometry" />
        </mxCell>
        <mxCell id="8eVqctKR0tM4HhJl3EsU-88" value="верни близкий филиал ресторана к пользователю и посчитай стоимость доставки" style="text;html=1;align=center;verticalAlign=middle;whiteSpace=wrap;rounded=0;rotation=0;" vertex="1" parent="1">
          <mxGeometry x="1035.8400000000001" y="150.93" width="140" height="30" as="geometry" />
        </mxCell>
        <mxCell id="8eVqctKR0tM4HhJl3EsU-89" value="" style="curved=1;startArrow=none;endArrow=block;exitX=1;exitY=0.5;exitDx=0;exitDy=0;entryX=0;entryY=0.5;entryDx=0;entryDy=0;" edge="1" parent="1" source="8eVqctKR0tM4HhJl3EsU-88" target="8eVqctKR0tM4HhJl3EsU-91">
          <mxGeometry relative="1" as="geometry">
            <Array as="points" />
            <mxPoint x="1122" y="165.43" as="sourcePoint" />
            <mxPoint x="1155" y="165.93" as="targetPoint" />
          </mxGeometry>
        </mxCell>
        <mxCell id="8eVqctKR0tM4HhJl3EsU-91" value="routre-service" style="whiteSpace=wrap;strokeWidth=2;" vertex="1" parent="1">
          <mxGeometry x="1269" y="62.5" width="120" height="47" as="geometry" />
        </mxCell>
        <mxCell id="8eVqctKR0tM4HhJl3EsU-94" value="" style="curved=1;startArrow=none;endArrow=block;exitX=1;exitY=0;exitDx=0;exitDy=0;entryX=0.022;entryY=0.141;entryDx=0;entryDy=0;entryPerimeter=0;" edge="1" parent="1" source="8eVqctKR0tM4HhJl3EsU-91" target="8eVqctKR0tM4HhJl3EsU-87">
          <mxGeometry relative="1" as="geometry">
            <Array as="points">
              <mxPoint x="1389" y="80" />
            </Array>
            <mxPoint x="1390" y="180" as="sourcePoint" />
            <mxPoint x="1456.6399999999999" y="190.48500000000013" as="targetPoint" />
          </mxGeometry>
        </mxCell>
        <mxCell id="8eVqctKR0tM4HhJl3EsU-96" value="" style="curved=1;startArrow=none;endArrow=block;entryX=1;entryY=1;entryDx=0;entryDy=0;" edge="1" parent="1" source="8eVqctKR0tM4HhJl3EsU-87" target="8eVqctKR0tM4HhJl3EsU-91">
          <mxGeometry relative="1" as="geometry">
            <Array as="points">
              <mxPoint x="1469" y="150" />
            </Array>
            <mxPoint x="1403.4107579462107" y="259" as="sourcePoint" />
            <mxPoint x="1496.4107579462107" y="300" as="targetPoint" />
          </mxGeometry>
        </mxCell>
        <mxCell id="8eVqctKR0tM4HhJl3EsU-97" value="response&amp;nbsp;от Google Maps API" style="text;html=1;align=center;verticalAlign=middle;whiteSpace=wrap;rounded=0;rotation=0;" vertex="1" parent="1">
          <mxGeometry x="1509" y="109.5" width="90" height="51" as="geometry" />
        </mxCell>
        <mxCell id="8eVqctKR0tM4HhJl3EsU-101" value="" style="curved=1;startArrow=none;endArrow=block;exitX=0;exitY=0;exitDx=0;exitDy=0;entryX=1;entryY=0.5;entryDx=0;entryDy=0;" edge="1" parent="1" source="8eVqctKR0tM4HhJl3EsU-91" target="8eVqctKR0tM4HhJl3EsU-100">
          <mxGeometry relative="1" as="geometry">
            <Array as="points" />
            <mxPoint x="1250" y="200" as="sourcePoint" />
            <mxPoint x="1250" y="67" as="targetPoint" />
          </mxGeometry>
        </mxCell>
        <mxCell id="8eVqctKR0tM4HhJl3EsU-100" value="&amp;nbsp;response в виде ближайшего филиала и стоимости доставки" style="text;html=1;align=center;verticalAlign=middle;whiteSpace=wrap;rounded=0;rotation=0;" vertex="1" parent="1">
          <mxGeometry x="1021.84" y="60" width="185" height="32.43" as="geometry" />
        </mxCell>
        <mxCell id="8eVqctKR0tM4HhJl3EsU-104" value="" style="curved=1;startArrow=none;endArrow=block;exitX=0;exitY=0.5;exitDx=0;exitDy=0;entryX=1;entryY=0;entryDx=0;entryDy=0;" edge="1" parent="1" source="8eVqctKR0tM4HhJl3EsU-100" target="8eVqctKR0tM4HhJl3EsU-77">
          <mxGeometry relative="1" as="geometry">
            <Array as="points">
              <mxPoint x="999" y="100" />
            </Array>
            <mxPoint x="1155" y="142.43" as="sourcePoint" />
            <mxPoint x="1065" y="138.93" as="targetPoint" />
          </mxGeometry>
        </mxCell>
        <mxCell id="8eVqctKR0tM4HhJl3EsU-129" value="&amp;nbsp;response в виде ближайшего филиала и стоимости доставки" style="text;html=1;align=center;verticalAlign=middle;whiteSpace=wrap;rounded=0;rotation=0;" vertex="1" parent="1">
          <mxGeometry x="704.8399999999999" y="40" width="174.16" height="21" as="geometry" />
        </mxCell>
        <mxCell id="8eVqctKR0tM4HhJl3EsU-130" value="" style="curved=1;startArrow=none;endArrow=block;entryX=1;entryY=0.5;entryDx=0;entryDy=0;exitX=0.583;exitY=0.012;exitDx=0;exitDy=0;exitPerimeter=0;" edge="1" parent="1" source="8eVqctKR0tM4HhJl3EsU-77" target="8eVqctKR0tM4HhJl3EsU-129">
          <mxGeometry relative="1" as="geometry">
            <Array as="points">
              <mxPoint x="939" y="70" />
            </Array>
            <mxPoint x="831" y="128.43" as="sourcePoint" />
            <mxPoint x="785" y="127.43" as="targetPoint" />
          </mxGeometry>
        </mxCell>
        <mxCell id="8eVqctKR0tM4HhJl3EsU-131" value="" style="curved=1;startArrow=none;endArrow=block;exitX=0.005;exitY=0.42;exitDx=0;exitDy=0;exitPerimeter=0;entryX=1;entryY=1;entryDx=0;entryDy=0;" edge="1" parent="1" source="8eVqctKR0tM4HhJl3EsU-129" target="3">
          <mxGeometry relative="1" as="geometry">
            <Array as="points" />
            <mxPoint x="715" y="96.43" as="sourcePoint" />
            <mxPoint x="639" y="114.77237123420826" as="targetPoint" />
          </mxGeometry>
        </mxCell>
        <mxCell id="8eVqctKR0tM4HhJl3EsU-135" value="" style="shape=cylinder3;whiteSpace=wrap;html=1;boundedLbl=1;backgroundOutline=1;size=15;" vertex="1" parent="1">
          <mxGeometry x="829" y="310" width="60" height="80" as="geometry" />
        </mxCell>
        <mxCell id="8eVqctKR0tM4HhJl3EsU-137" value="пользователь оплатил досатвку" style="text;html=1;align=center;verticalAlign=middle;whiteSpace=wrap;rounded=0;rotation=0;" vertex="1" parent="1">
          <mxGeometry x="459" y="180" width="120" height="30" as="geometry" />
        </mxCell>
        <mxCell id="8eVqctKR0tM4HhJl3EsU-138" value="" style="curved=1;startArrow=none;endArrow=block;entryX=0.5;entryY=0;entryDx=0;entryDy=0;exitX=0.463;exitY=1.009;exitDx=0;exitDy=0;exitPerimeter=0;" edge="1" parent="1" source="3" target="8eVqctKR0tM4HhJl3EsU-137">
          <mxGeometry relative="1" as="geometry">
            <Array as="points" />
            <mxPoint x="509" y="121" as="sourcePoint" />
            <mxPoint x="555" y="122" as="targetPoint" />
          </mxGeometry>
        </mxCell>
        <mxCell id="8eVqctKR0tM4HhJl3EsU-140" value="" style="curved=1;startArrow=none;endArrow=block;entryX=1;entryY=0.5;entryDx=0;entryDy=0;exitX=0;exitY=0.5;exitDx=0;exitDy=0;" edge="1" parent="1" source="8eVqctKR0tM4HhJl3EsU-187" target="8eVqctKR0tM4HhJl3EsU-207">
          <mxGeometry relative="1" as="geometry">
            <Array as="points" />
            <mxPoint x="1513.48" y="338.5" as="sourcePoint" />
            <mxPoint x="1458.9986399999998" y="316.2805400000002" as="targetPoint" />
          </mxGeometry>
        </mxCell>
        <mxCell id="8eVqctKR0tM4HhJl3EsU-141" value="" style="curved=1;startArrow=none;endArrow=block;entryX=0.5;entryY=0;entryDx=0;entryDy=0;exitX=0.5;exitY=1;exitDx=0;exitDy=0;" edge="1" parent="1" source="8eVqctKR0tM4HhJl3EsU-165" target="8eVqctKR0tM4HhJl3EsU-178">
          <mxGeometry relative="1" as="geometry">
            <Array as="points" />
            <mxPoint x="1035.8400000000001" y="490" as="sourcePoint" />
            <mxPoint x="1081.8400000000001" y="491" as="targetPoint" />
          </mxGeometry>
        </mxCell>
        <mxCell id="8eVqctKR0tM4HhJl3EsU-142" value="" style="curved=1;startArrow=none;endArrow=block;exitX=1;exitY=0.5;exitDx=0;exitDy=0;" edge="1" parent="1" source="8eVqctKR0tM4HhJl3EsU-160" target="8eVqctKR0tM4HhJl3EsU-165">
          <mxGeometry relative="1" as="geometry">
            <Array as="points">
              <mxPoint x="1179" y="310" />
            </Array>
            <mxPoint x="1122.3400000000001" y="310" as="sourcePoint" />
            <mxPoint x="1168.3400000000001" y="311" as="targetPoint" />
          </mxGeometry>
        </mxCell>
        <mxCell id="8eVqctKR0tM4HhJl3EsU-143" value="" style="curved=1;startArrow=none;endArrow=block;entryX=0.472;entryY=0.038;entryDx=0;entryDy=0;exitX=0.472;exitY=1.009;exitDx=0;exitDy=0;exitPerimeter=0;entryPerimeter=0;" edge="1" parent="1" source="8eVqctKR0tM4HhJl3EsU-172" target="8eVqctKR0tM4HhJl3EsU-167">
          <mxGeometry relative="1" as="geometry">
            <Array as="points" />
            <mxPoint x="616" y="510" as="sourcePoint" />
            <mxPoint x="662" y="511" as="targetPoint" />
          </mxGeometry>
        </mxCell>
        <mxCell id="8eVqctKR0tM4HhJl3EsU-144" value="" style="curved=1;startArrow=none;endArrow=block;entryX=0;entryY=1;entryDx=0;entryDy=0;exitX=1;exitY=0.25;exitDx=0;exitDy=0;" edge="1" parent="1" source="8eVqctKR0tM4HhJl3EsU-145" target="8eVqctKR0tM4HhJl3EsU-77">
          <mxGeometry relative="1" as="geometry">
            <Array as="points" />
            <mxPoint x="669" y="190" as="sourcePoint" />
            <mxPoint x="715" y="191" as="targetPoint" />
          </mxGeometry>
        </mxCell>
        <mxCell id="8eVqctKR0tM4HhJl3EsU-146" value="" style="curved=1;startArrow=none;endArrow=block;entryX=0;entryY=0.5;entryDx=0;entryDy=0;exitX=1;exitY=0.25;exitDx=0;exitDy=0;" edge="1" parent="1" source="8eVqctKR0tM4HhJl3EsU-137" target="8eVqctKR0tM4HhJl3EsU-145">
          <mxGeometry relative="1" as="geometry">
            <Array as="points" />
            <mxPoint x="669" y="178" as="sourcePoint" />
            <mxPoint x="805" y="189" as="targetPoint" />
          </mxGeometry>
        </mxCell>
        <mxCell id="8eVqctKR0tM4HhJl3EsU-145" value="сохранение заказа в бд со статусом ОПЛАЧЕН" style="text;html=1;align=center;verticalAlign=middle;whiteSpace=wrap;rounded=0;rotation=0;" vertex="1" parent="1">
          <mxGeometry x="639" y="189.43" width="120" height="30" as="geometry" />
        </mxCell>
        <mxCell id="8eVqctKR0tM4HhJl3EsU-147" value="" style="curved=1;startArrow=none;endArrow=block;entryX=0.145;entryY=0;entryDx=0;entryDy=4.35;exitX=0.5;exitY=1;exitDx=0;exitDy=0;entryPerimeter=0;" edge="1" parent="1" source="8eVqctKR0tM4HhJl3EsU-148" target="8eVqctKR0tM4HhJl3EsU-135">
          <mxGeometry relative="1" as="geometry">
            <Array as="points" />
            <mxPoint x="833" y="250" as="sourcePoint" />
            <mxPoint x="879" y="251" as="targetPoint" />
          </mxGeometry>
        </mxCell>
        <mxCell id="8eVqctKR0tM4HhJl3EsU-149" value="" style="curved=1;startArrow=none;endArrow=block;entryX=0.5;entryY=0;entryDx=0;entryDy=0;exitX=0.25;exitY=1;exitDx=0;exitDy=0;" edge="1" parent="1" source="8eVqctKR0tM4HhJl3EsU-77" target="8eVqctKR0tM4HhJl3EsU-148">
          <mxGeometry relative="1" as="geometry">
            <Array as="points" />
            <mxPoint x="835" y="189" as="sourcePoint" />
            <mxPoint x="838" y="314" as="targetPoint" />
          </mxGeometry>
        </mxCell>
        <mxCell id="8eVqctKR0tM4HhJl3EsU-148" value="&lt;p data-pm-slice=&quot;1 1 []&quot;&gt;INSERT заказ&lt;br&gt;&lt;/p&gt;" style="text;html=1;align=center;verticalAlign=middle;whiteSpace=wrap;rounded=0;rotation=0;" vertex="1" parent="1">
          <mxGeometry x="741.4200000000001" y="245" width="101" height="30" as="geometry" />
        </mxCell>
        <mxCell id="8eVqctKR0tM4HhJl3EsU-160" value="сделать отложенную таску на n минут для симуляции готовки" style="text;html=1;align=center;verticalAlign=middle;whiteSpace=wrap;rounded=0;rotation=0;" vertex="1" parent="1">
          <mxGeometry x="979" y="280" width="120" height="50" as="geometry" />
        </mxCell>
        <mxCell id="8eVqctKR0tM4HhJl3EsU-164" value="" style="curved=1;startArrow=none;endArrow=block;entryX=0.5;entryY=0;entryDx=0;entryDy=0;exitX=0.652;exitY=0.992;exitDx=0;exitDy=0;exitPerimeter=0;" edge="1" parent="1" source="8eVqctKR0tM4HhJl3EsU-77" target="8eVqctKR0tM4HhJl3EsU-160">
          <mxGeometry relative="1" as="geometry">
            <Array as="points" />
            <mxPoint x="963.5" y="218.42999999999995" as="sourcePoint" />
            <mxPoint x="1009.5" y="219.42999999999995" as="targetPoint" />
          </mxGeometry>
        </mxCell>
        <mxCell id="8eVqctKR0tM4HhJl3EsU-165" value="по истичению n минут изменить статус заказа на ПРИГОТОВЛЕН" style="text;html=1;align=center;verticalAlign=middle;whiteSpace=wrap;rounded=0;rotation=0;" vertex="1" parent="1">
          <mxGeometry x="1089.8400000000001" y="370" width="120" height="80" as="geometry" />
        </mxCell>
        <mxCell id="8eVqctKR0tM4HhJl3EsU-166" value="" style="curved=1;startArrow=none;endArrow=block;exitX=0.5;exitY=1;exitDx=0;exitDy=0;entryX=0.5;entryY=0;entryDx=0;entryDy=0;" edge="1" parent="1" source="8eVqctKR0tM4HhJl3EsU-169" target="8eVqctKR0tM4HhJl3EsU-168">
          <mxGeometry relative="1" as="geometry">
            <Array as="points" />
            <mxPoint x="663.0000000000002" y="354.9999999999998" as="sourcePoint" />
            <mxPoint x="649" y="395" as="targetPoint" />
          </mxGeometry>
        </mxCell>
        <mxCell id="8eVqctKR0tM4HhJl3EsU-167" value="message service" style="whiteSpace=wrap;strokeWidth=2;" vertex="1" parent="1">
          <mxGeometry x="574" y="660" width="120" height="47" as="geometry" />
        </mxCell>
        <mxCell id="8eVqctKR0tM4HhJl3EsU-168" value="kafka" style="whiteSpace=wrap;strokeWidth=2;" vertex="1" parent="1">
          <mxGeometry x="579" y="440" width="120" height="47" as="geometry" />
        </mxCell>
        <mxCell id="8eVqctKR0tM4HhJl3EsU-170" value="" style="curved=1;startArrow=none;endArrow=block;exitX=0.5;exitY=1;exitDx=0;exitDy=0;" edge="1" parent="1" source="8eVqctKR0tM4HhJl3EsU-145" target="8eVqctKR0tM4HhJl3EsU-169">
          <mxGeometry relative="1" as="geometry">
            <Array as="points" />
            <mxPoint x="699" y="219" as="sourcePoint" />
            <mxPoint x="669" y="330" as="targetPoint" />
          </mxGeometry>
        </mxCell>
        <mxCell id="8eVqctKR0tM4HhJl3EsU-169" value="отправка сообщенеия в message-service о том что заказ принят в обработку&amp;nbsp;" style="text;html=1;align=center;verticalAlign=middle;whiteSpace=wrap;rounded=0;rotation=0;" vertex="1" parent="1">
          <mxGeometry x="623" y="260" width="120" height="70" as="geometry" />
        </mxCell>
        <mxCell id="8eVqctKR0tM4HhJl3EsU-173" value="" style="curved=1;startArrow=none;endArrow=block;entryX=0.472;entryY=0.038;entryDx=0;entryDy=0;exitX=0.472;exitY=1.009;exitDx=0;exitDy=0;exitPerimeter=0;entryPerimeter=0;" edge="1" parent="1" source="8eVqctKR0tM4HhJl3EsU-168" target="8eVqctKR0tM4HhJl3EsU-172">
          <mxGeometry relative="1" as="geometry">
            <Array as="points" />
            <mxPoint x="636" y="447" as="sourcePoint" />
            <mxPoint x="636" y="562" as="targetPoint" />
          </mxGeometry>
        </mxCell>
        <mxCell id="8eVqctKR0tM4HhJl3EsU-172" value="отправка сообщения на gmail" style="text;html=1;align=center;verticalAlign=middle;whiteSpace=wrap;rounded=0;rotation=0;" vertex="1" parent="1">
          <mxGeometry x="579" y="540" width="110" height="40" as="geometry" />
        </mxCell>
        <mxCell id="8eVqctKR0tM4HhJl3EsU-174" value="" style="curved=1;startArrow=none;endArrow=block;exitX=0;exitY=0.5;exitDx=0;exitDy=0;entryX=0.991;entryY=0.567;entryDx=0;entryDy=0;entryPerimeter=0;" edge="1" parent="1" source="8eVqctKR0tM4HhJl3EsU-175" target="8eVqctKR0tM4HhJl3EsU-135">
          <mxGeometry relative="1" as="geometry">
            <Array as="points" />
            <mxPoint x="1031.8400000000001" y="480" as="sourcePoint" />
            <mxPoint x="909" y="370" as="targetPoint" />
          </mxGeometry>
        </mxCell>
        <mxCell id="8eVqctKR0tM4HhJl3EsU-176" value="" style="curved=1;startArrow=none;endArrow=block;entryX=1;entryY=0.5;entryDx=0;entryDy=0;exitX=0;exitY=0.5;exitDx=0;exitDy=0;" edge="1" parent="1" source="8eVqctKR0tM4HhJl3EsU-165" target="8eVqctKR0tM4HhJl3EsU-175">
          <mxGeometry relative="1" as="geometry">
            <Array as="points" />
            <mxPoint x="995" y="397" as="sourcePoint" />
            <mxPoint x="904" y="352" as="targetPoint" />
          </mxGeometry>
        </mxCell>
        <mxCell id="8eVqctKR0tM4HhJl3EsU-175" value="&lt;p data-pm-slice=&quot;1 1 []&quot;&gt;&amp;nbsp;UPDATE orderStatus&lt;/p&gt;" style="text;html=1;align=center;verticalAlign=middle;whiteSpace=wrap;rounded=0;rotation=0;" vertex="1" parent="1">
          <mxGeometry x="949" y="360" width="71" height="30" as="geometry" />
        </mxCell>
        <mxCell id="8eVqctKR0tM4HhJl3EsU-178" value="уведомить пользователя о том, что заказ приготовлен" style="text;html=1;align=center;verticalAlign=middle;whiteSpace=wrap;rounded=0;rotation=0;" vertex="1" parent="1">
          <mxGeometry x="1099" y="487" width="120" height="80" as="geometry" />
        </mxCell>
        <mxCell id="8eVqctKR0tM4HhJl3EsU-180" value="" style="curved=1;startArrow=none;endArrow=block;entryX=0.999;entryY=0.367;entryDx=0;entryDy=0;exitX=0;exitY=0.5;exitDx=0;exitDy=0;entryPerimeter=0;" edge="1" parent="1" source="8eVqctKR0tM4HhJl3EsU-178" target="8eVqctKR0tM4HhJl3EsU-168">
          <mxGeometry relative="1" as="geometry">
            <Array as="points" />
            <mxPoint x="1077.8400000000001" y="551" as="sourcePoint" />
            <mxPoint x="1031.8400000000001" y="550" as="targetPoint" />
          </mxGeometry>
        </mxCell>
        <mxCell id="8eVqctKR0tM4HhJl3EsU-181" value="" style="curved=1;startArrow=none;endArrow=block;entryX=0.5;entryY=1;entryDx=0;entryDy=0;exitX=1;exitY=1;exitDx=0;exitDy=0;" edge="1" parent="1" source="8eVqctKR0tM4HhJl3EsU-218" target="8eVqctKR0tM4HhJl3EsU-211">
          <mxGeometry relative="1" as="geometry">
            <Array as="points">
              <mxPoint x="1859" y="390" />
            </Array>
            <mxPoint x="1829.0000000000002" y="420" as="sourcePoint" />
            <mxPoint x="1875.0000000000002" y="421" as="targetPoint" />
          </mxGeometry>
        </mxCell>
        <mxCell id="8eVqctKR0tM4HhJl3EsU-182" value="" style="curved=1;startArrow=none;endArrow=block;entryX=0.5;entryY=0;entryDx=0;entryDy=0;exitX=0.5;exitY=1;exitDx=0;exitDy=0;" edge="1" parent="1" source="8eVqctKR0tM4HhJl3EsU-77" target="8eVqctKR0tM4HhJl3EsU-175">
          <mxGeometry relative="1" as="geometry">
            <Array as="points" />
            <mxPoint x="869.0000000000001" y="250" as="sourcePoint" />
            <mxPoint x="915.0000000000001" y="251" as="targetPoint" />
          </mxGeometry>
        </mxCell>
        <mxCell id="8eVqctKR0tM4HhJl3EsU-187" value="courier-service" style="whiteSpace=wrap;strokeWidth=2;" vertex="1" parent="1">
          <mxGeometry x="1509" y="370" width="120" height="47" as="geometry" />
        </mxCell>
        <mxCell id="8eVqctKR0tM4HhJl3EsU-190" value="USER" style="shape=umlActor;verticalLabelPosition=bottom;verticalAlign=top;html=1;outlineConnect=0;" vertex="1" parent="1">
          <mxGeometry x="369" y="-87.43" width="30" height="60" as="geometry" />
        </mxCell>
        <mxCell id="8eVqctKR0tM4HhJl3EsU-192" value="Courier" style="shape=umlActor;verticalLabelPosition=bottom;verticalAlign=top;html=1;outlineConnect=0;" vertex="1" parent="1">
          <mxGeometry x="2081.64" y="297.5" width="30" height="60" as="geometry" />
        </mxCell>
        <mxCell id="8eVqctKR0tM4HhJl3EsU-193" value="&lt;p data-pm-slice=&quot;1 1 []&quot;&gt;(1)&lt;br&gt;хочет взять заказ, на input дает свои координаты&lt;/p&gt;" style="text;html=1;align=center;verticalAlign=middle;whiteSpace=wrap;rounded=0;rotation=0;" vertex="1" parent="1">
          <mxGeometry x="1698.9999999999998" y="239" width="94.16" height="71" as="geometry" />
        </mxCell>
        <mxCell id="8eVqctKR0tM4HhJl3EsU-195" value="" style="curved=1;startArrow=none;endArrow=block;entryX=1;entryY=0.5;entryDx=0;entryDy=0;" edge="1" parent="1" source="8eVqctKR0tM4HhJl3EsU-192" target="8eVqctKR0tM4HhJl3EsU-211">
          <mxGeometry relative="1" as="geometry">
            <Array as="points" />
            <mxPoint x="1887.6400000000003" y="358.5" as="sourcePoint" />
            <mxPoint x="1841.6400000000003" y="357.5" as="targetPoint" />
          </mxGeometry>
        </mxCell>
        <mxCell id="8eVqctKR0tM4HhJl3EsU-202" value="" style="curved=1;startArrow=none;endArrow=block;entryX=0.75;entryY=0;entryDx=0;entryDy=0;exitX=0;exitY=0.5;exitDx=0;exitDy=0;" edge="1" parent="1" source="8eVqctKR0tM4HhJl3EsU-193" target="8eVqctKR0tM4HhJl3EsU-187">
          <mxGeometry relative="1" as="geometry">
            <Array as="points" />
            <mxPoint x="1716.6400000000003" y="375.5" as="sourcePoint" />
            <mxPoint x="1670.6400000000003" y="374.5" as="targetPoint" />
          </mxGeometry>
        </mxCell>
        <mxCell id="8eVqctKR0tM4HhJl3EsU-203" value="" style="curved=1;startArrow=none;endArrow=block;exitX=0.5;exitY=0;exitDx=0;exitDy=0;" edge="1" parent="1" source="8eVqctKR0tM4HhJl3EsU-187" target="8eVqctKR0tM4HhJl3EsU-214">
          <mxGeometry relative="1" as="geometry">
            <Array as="points" />
            <mxPoint x="1593.0000000000002" y="330" as="sourcePoint" />
            <mxPoint x="1547.0000000000002" y="329" as="targetPoint" />
          </mxGeometry>
        </mxCell>
        <mxCell id="8eVqctKR0tM4HhJl3EsU-204" value="" style="curved=1;startArrow=none;endArrow=block;entryX=0.5;entryY=1;entryDx=0;entryDy=0;exitX=0.5;exitY=0;exitDx=0;exitDy=0;" edge="1" parent="1" source="8eVqctKR0tM4HhJl3EsU-214" target="8eVqctKR0tM4HhJl3EsU-91">
          <mxGeometry relative="1" as="geometry">
            <Array as="points" />
            <mxPoint x="1529.0000000000002" y="246.5" as="sourcePoint" />
            <mxPoint x="1483.0000000000002" y="245.5" as="targetPoint" />
          </mxGeometry>
        </mxCell>
        <mxCell id="8eVqctKR0tM4HhJl3EsU-205" value="" style="curved=1;startArrow=none;endArrow=block;entryX=0;entryY=0.5;entryDx=0;entryDy=0;exitX=1;exitY=0.25;exitDx=0;exitDy=0;" edge="1" parent="1" source="8eVqctKR0tM4HhJl3EsU-187" target="8eVqctKR0tM4HhJl3EsU-218">
          <mxGeometry relative="1" as="geometry">
            <Array as="points" />
            <mxPoint x="1645.0000000000002" y="441" as="sourcePoint" />
            <mxPoint x="1599.0000000000002" y="440" as="targetPoint" />
          </mxGeometry>
        </mxCell>
        <mxCell id="8eVqctKR0tM4HhJl3EsU-206" value="" style="curved=1;startArrow=none;endArrow=block;entryX=1;entryY=0.5;entryDx=0;entryDy=0;exitX=0.864;exitY=1.065;exitDx=0;exitDy=0;exitPerimeter=0;" edge="1" parent="1" source="8eVqctKR0tM4HhJl3EsU-211" target="8eVqctKR0tM4HhJl3EsU-219">
          <mxGeometry relative="1" as="geometry">
            <Array as="points" />
            <mxPoint x="1985.0000000000002" y="417" as="sourcePoint" />
            <mxPoint x="1939.0000000000002" y="416" as="targetPoint" />
          </mxGeometry>
        </mxCell>
        <mxCell id="8eVqctKR0tM4HhJl3EsU-207" value="&lt;p data-pm-slice=&quot;1 1 []&quot;&gt;верни мне 10 заказов, которые находятся близко к координатам&lt;/p&gt;" style="text;html=1;align=center;verticalAlign=middle;whiteSpace=wrap;rounded=0;rotation=0;" vertex="1" parent="1">
          <mxGeometry x="1258.9999999999998" y="280" width="78.32" height="70.57" as="geometry" />
        </mxCell>
        <mxCell id="8eVqctKR0tM4HhJl3EsU-209" value="" style="shape=image;verticalLabelPosition=bottom;labelBackgroundColor=default;verticalAlign=top;aspect=fixed;imageAspect=0;image=https://i01.fotocdn.net/s208/bc3619d798bb7a99/public_pin_l/2542686943.jpg;" vertex="1" parent="1">
          <mxGeometry x="824.61" y="340" width="68.77" height="40" as="geometry" />
        </mxCell>
        <mxCell id="8eVqctKR0tM4HhJl3EsU-210" value="" style="curved=1;startArrow=none;endArrow=block;entryX=1;entryY=0.75;entryDx=0;entryDy=0;exitX=0;exitY=0.5;exitDx=0;exitDy=0;" edge="1" parent="1" source="8eVqctKR0tM4HhJl3EsU-207" target="8eVqctKR0tM4HhJl3EsU-77">
          <mxGeometry relative="1" as="geometry">
            <Array as="points" />
            <mxPoint x="1156.0000000000002" y="246.5" as="sourcePoint" />
            <mxPoint x="1110.0000000000002" y="245.5" as="targetPoint" />
          </mxGeometry>
        </mxCell>
        <mxCell id="8eVqctKR0tM4HhJl3EsU-211" value="gateway-service" style="whiteSpace=wrap;strokeWidth=2;" vertex="1" parent="1">
          <mxGeometry x="1861.6399999999999" y="313.5" width="176" height="47" as="geometry" />
        </mxCell>
        <mxCell id="8eVqctKR0tM4HhJl3EsU-212" value="" style="curved=1;startArrow=none;endArrow=block;entryX=1.009;entryY=0.375;entryDx=0;entryDy=0;exitX=0.25;exitY=0;exitDx=0;exitDy=0;entryPerimeter=0;" edge="1" parent="1" source="8eVqctKR0tM4HhJl3EsU-211" target="8eVqctKR0tM4HhJl3EsU-193">
          <mxGeometry relative="1" as="geometry">
            <Array as="points" />
            <mxPoint x="1861.6400000000003" y="398" as="sourcePoint" />
            <mxPoint x="1815.6400000000003" y="397" as="targetPoint" />
          </mxGeometry>
        </mxCell>
        <mxCell id="8eVqctKR0tM4HhJl3EsU-214" value="из 10 заказов, верни самый ближайший" style="text;html=1;align=center;verticalAlign=middle;whiteSpace=wrap;rounded=0;rotation=0;" vertex="1" parent="1">
          <mxGeometry x="1439" y="223.5" width="110" height="45" as="geometry" />
        </mxCell>
        <mxCell id="8eVqctKR0tM4HhJl3EsU-218" value="&lt;p data-pm-slice=&quot;1 1 []&quot;&gt;возвращает ближайший заказ&lt;/p&gt;" style="text;html=1;align=center;verticalAlign=middle;whiteSpace=wrap;rounded=0;rotation=0;" vertex="1" parent="1">
          <mxGeometry x="1699" y="350" width="100" height="30" as="geometry" />
        </mxCell>
        <mxCell id="8eVqctKR0tM4HhJl3EsU-219" value="&lt;p data-pm-slice=&quot;1 1 []&quot;&gt;(2)&lt;br&gt;принимает заказ&lt;/p&gt;" style="text;html=1;align=center;verticalAlign=middle;whiteSpace=wrap;rounded=0;rotation=0;" vertex="1" parent="1">
          <mxGeometry x="1719" y="440" width="104.16" height="24" as="geometry" />
        </mxCell>
        <mxCell id="8eVqctKR0tM4HhJl3EsU-220" value="" style="curved=1;startArrow=none;endArrow=block;entryX=1;entryY=1;entryDx=0;entryDy=0;exitX=0;exitY=0.5;exitDx=0;exitDy=0;" edge="1" parent="1" source="8eVqctKR0tM4HhJl3EsU-219" target="8eVqctKR0tM4HhJl3EsU-187">
          <mxGeometry relative="1" as="geometry">
            <Array as="points" />
            <mxPoint x="1715.0000000000002" y="471" as="sourcePoint" />
            <mxPoint x="1669.0000000000002" y="470" as="targetPoint" />
          </mxGeometry>
        </mxCell>
        <mxCell id="8eVqctKR0tM4HhJl3EsU-221" value="" style="curved=1;startArrow=none;endArrow=block;exitX=0.565;exitY=0.943;exitDx=0;exitDy=0;exitPerimeter=0;entryX=0.5;entryY=0;entryDx=0;entryDy=0;" edge="1" parent="1" source="8eVqctKR0tM4HhJl3EsU-187" target="8eVqctKR0tM4HhJl3EsU-225">
          <mxGeometry relative="1" as="geometry">
            <Array as="points" />
            <mxPoint x="1577.0000000000002" y="465" as="sourcePoint" />
            <mxPoint x="1569" y="490" as="targetPoint" />
          </mxGeometry>
        </mxCell>
        <mxCell id="8eVqctKR0tM4HhJl3EsU-222" value="" style="curved=1;startArrow=none;endArrow=block;entryX=1;entryY=1;entryDx=0;entryDy=0;" edge="1" parent="1" source="8eVqctKR0tM4HhJl3EsU-226" target="8eVqctKR0tM4HhJl3EsU-77">
          <mxGeometry relative="1" as="geometry">
            <Array as="points">
              <mxPoint x="1139" y="300" />
            </Array>
            <mxPoint x="1295.0000000000002" y="440" as="sourcePoint" />
            <mxPoint x="1249.0000000000002" y="439" as="targetPoint" />
          </mxGeometry>
        </mxCell>
        <mxCell id="8eVqctKR0tM4HhJl3EsU-223" value="" style="curved=1;startArrow=none;endArrow=block;entryX=1;entryY=1;entryDx=0;entryDy=0;exitX=0;exitY=0.5;exitDx=0;exitDy=0;" edge="1" parent="1" source="8eVqctKR0tM4HhJl3EsU-234" target="8eVqctKR0tM4HhJl3EsU-168">
          <mxGeometry relative="1" as="geometry">
            <Array as="points">
              <mxPoint x="1019" y="610" />
            </Array>
            <mxPoint x="1202.0000000000002" y="631" as="sourcePoint" />
            <mxPoint x="1156.0000000000002" y="630" as="targetPoint" />
          </mxGeometry>
        </mxCell>
        <mxCell id="8eVqctKR0tM4HhJl3EsU-225" value="сделать отложенную таску на n минут для симуляции доставки" style="text;html=1;align=center;verticalAlign=middle;whiteSpace=wrap;rounded=0;rotation=0;" vertex="1" parent="1">
          <mxGeometry x="1609" y="502" width="120" height="50" as="geometry" />
        </mxCell>
        <mxCell id="8eVqctKR0tM4HhJl3EsU-226" value="измени статус заказа на ДОСТАВЛЯЕТСЯ" style="text;html=1;align=center;verticalAlign=middle;whiteSpace=wrap;rounded=0;rotation=0;" vertex="1" parent="1">
          <mxGeometry x="1329" y="427" width="95.84" height="43" as="geometry" />
        </mxCell>
        <mxCell id="8eVqctKR0tM4HhJl3EsU-227" value="" style="curved=1;startArrow=none;endArrow=block;entryX=0.426;entryY=0.011;entryDx=0;entryDy=0;exitX=0.5;exitY=1;exitDx=0;exitDy=0;entryPerimeter=0;" edge="1" parent="1" source="8eVqctKR0tM4HhJl3EsU-226" target="8eVqctKR0tM4HhJl3EsU-234">
          <mxGeometry relative="1" as="geometry">
            <Array as="points" />
            <mxPoint x="1395.0000000000002" y="503" as="sourcePoint" />
            <mxPoint x="1349.0000000000002" y="502" as="targetPoint" />
          </mxGeometry>
        </mxCell>
        <mxCell id="8eVqctKR0tM4HhJl3EsU-229" value="" style="curved=1;startArrow=none;endArrow=block;entryX=0.5;entryY=0;entryDx=0;entryDy=0;exitX=0.5;exitY=1;exitDx=0;exitDy=0;" edge="1" parent="1" source="8eVqctKR0tM4HhJl3EsU-225" target="8eVqctKR0tM4HhJl3EsU-235">
          <mxGeometry relative="1" as="geometry">
            <Array as="points" />
            <mxPoint x="1685" y="581" as="sourcePoint" />
            <mxPoint x="1639.0000000000002" y="580" as="targetPoint" />
          </mxGeometry>
        </mxCell>
        <mxCell id="8eVqctKR0tM4HhJl3EsU-230" value="" style="curved=1;startArrow=none;endArrow=block;entryX=1;entryY=0.5;entryDx=0;entryDy=0;exitX=0;exitY=1;exitDx=0;exitDy=0;" edge="1" parent="1" source="8eVqctKR0tM4HhJl3EsU-187" target="8eVqctKR0tM4HhJl3EsU-226">
          <mxGeometry relative="1" as="geometry">
            <Array as="points" />
            <mxPoint x="1509.0000000000002" y="465" as="sourcePoint" />
            <mxPoint x="1463.0000000000002" y="464" as="targetPoint" />
          </mxGeometry>
        </mxCell>
        <mxCell id="8eVqctKR0tM4HhJl3EsU-233" value="courier request" style="text;html=1;align=center;verticalAlign=middle;whiteSpace=wrap;rounded=0;rotation=0;" vertex="1" parent="1">
          <mxGeometry x="859" y="250" width="69" height="30" as="geometry" />
        </mxCell>
        <mxCell id="8eVqctKR0tM4HhJl3EsU-234" value="уведомить пользователя о том, что заказ доставляется" style="text;html=1;align=center;verticalAlign=middle;whiteSpace=wrap;rounded=0;rotation=0;" vertex="1" parent="1">
          <mxGeometry x="1316.92" y="570" width="132.08" height="50" as="geometry" />
        </mxCell>
        <mxCell id="8eVqctKR0tM4HhJl3EsU-235" value="после n минут доставка завершена&amp;nbsp;" style="text;html=1;align=center;verticalAlign=middle;whiteSpace=wrap;rounded=0;rotation=0;" vertex="1" parent="1">
          <mxGeometry x="1659" y="650" width="140" height="40" as="geometry" />
        </mxCell>
        <mxCell id="8eVqctKR0tM4HhJl3EsU-236" value="" style="curved=1;startArrow=none;endArrow=block;entryX=0.75;entryY=1;entryDx=0;entryDy=0;exitX=0;exitY=0.5;exitDx=0;exitDy=0;" edge="1" parent="1" source="8eVqctKR0tM4HhJl3EsU-240" target="8eVqctKR0tM4HhJl3EsU-168">
          <mxGeometry relative="1" as="geometry">
            <Array as="points">
              <mxPoint x="1079" y="680" />
            </Array>
            <mxPoint x="1485.0000000000002" y="755.5" as="sourcePoint" />
            <mxPoint x="1439.0000000000002" y="754.5" as="targetPoint" />
          </mxGeometry>
        </mxCell>
        <mxCell id="8eVqctKR0tM4HhJl3EsU-237" value="" style="curved=1;startArrow=none;endArrow=block;entryX=0.75;entryY=0;entryDx=0;entryDy=0;exitX=0.5;exitY=1;exitDx=0;exitDy=0;" edge="1" parent="1" source="8eVqctKR0tM4HhJl3EsU-235" target="8eVqctKR0tM4HhJl3EsU-240">
          <mxGeometry relative="1" as="geometry">
            <Array as="points">
              <mxPoint x="1609" y="710" />
            </Array>
            <mxPoint x="1593.0000000000002" y="691" as="sourcePoint" />
            <mxPoint x="1547.0000000000002" y="690" as="targetPoint" />
          </mxGeometry>
        </mxCell>
        <mxCell id="8eVqctKR0tM4HhJl3EsU-238" value="" style="curved=1;startArrow=none;endArrow=block;entryX=0.869;entryY=1.097;entryDx=0;entryDy=0;exitX=0.25;exitY=0;exitDx=0;exitDy=0;entryPerimeter=0;" edge="1" parent="1" source="8eVqctKR0tM4HhJl3EsU-239" target="8eVqctKR0tM4HhJl3EsU-226">
          <mxGeometry relative="1" as="geometry">
            <Array as="points" />
            <mxPoint x="1522.9200000000003" y="521" as="sourcePoint" />
            <mxPoint x="1476.9200000000003" y="520" as="targetPoint" />
          </mxGeometry>
        </mxCell>
        <mxCell id="8eVqctKR0tM4HhJl3EsU-239" value="изменить статус у заказа в бд на ДОСТАВЛЕН" style="text;html=1;align=center;verticalAlign=middle;whiteSpace=wrap;rounded=0;rotation=0;" vertex="1" parent="1">
          <mxGeometry x="1476.92" y="567" width="132.08" height="50" as="geometry" />
        </mxCell>
        <mxCell id="8eVqctKR0tM4HhJl3EsU-240" value="уведомить пользователя о том, что заказ доставлен" style="text;html=1;align=center;verticalAlign=middle;whiteSpace=wrap;rounded=0;rotation=0;" vertex="1" parent="1">
          <mxGeometry x="1416.92" y="700" width="132.08" height="50" as="geometry" />
        </mxCell>
        <mxCell id="8eVqctKR0tM4HhJl3EsU-242" value="" style="curved=1;startArrow=none;endArrow=block;entryX=0.75;entryY=1;entryDx=0;entryDy=0;" edge="1" parent="1" source="8eVqctKR0tM4HhJl3EsU-235" target="8eVqctKR0tM4HhJl3EsU-239">
          <mxGeometry relative="1" as="geometry">
            <Array as="points" />
            <mxPoint x="1585.0000000000002" y="651" as="sourcePoint" />
            <mxPoint x="1539.0000000000002" y="650" as="targetPoint" />
          </mxGeometry>
        </mxCell>
        <mxCell id="8eVqctKR0tM4HhJl3EsU-243" value="" style="shape=cylinder3;whiteSpace=wrap;html=1;boundedLbl=1;backgroundOutline=1;size=15;" vertex="1" parent="1">
          <mxGeometry x="1984" y="6" width="60" height="80" as="geometry" />
        </mxCell>
        <mxCell id="8eVqctKR0tM4HhJl3EsU-244" value="" style="shape=image;verticalLabelPosition=bottom;labelBackgroundColor=default;verticalAlign=top;aspect=fixed;imageAspect=0;image=data:image/png,iVBORw0KGgoAAAANSUhEUgAAAlgAAAGQCAMAAABF6+6qAAAABGdBTUEAALGPC/xhBQAAAAFzUkdCAK7OHOkAAABdUExURUxpceDh4uLi4uHh4ry8vKampn9/gNna2sXN05SUldbW1y0tL3l5elFRUiwsLsTFxZCQkf///wAAAjNokwcICfz9/SMjJe7z9T5qjWVlZ97n7EZGR1l/nHiYsJq0yMU4214AAAARdFJOUwA0j2H9/v7+/fzVX9SnIbmqlctVqQAAIABJREFUeNrsnW13mzwMhp91EJt+2SGbMG/h///Mx5ZkAwkBTENCG6nndH0JtBvXbt2WZfu//yQkJCQkJCQkJCQkJCQkJCQkHhe/fPzm+IgNuuzXIP77Jf+ubwrTFUKfIVQfehhqFJ/9Nz5HccWbg0zi50sTw+QR+hzQ43Cpa7MmYPKrtQu+4Q1qwthPTHRem/A5E0NIgccoHwfkCwHALwMM+qi/GoAwI1SDxtn4I4j9CKa8PAVdQqCc5DARiMEVVP0bMnLziojgH8N65n8JVjHHlzyj70ZUAApVQ5E6AYsRXIE0xglYjPy7zViN9I9+MPFFhKGGIV/ywL6FKceMR0+PTZOXJ5KoKYW6Ag0egRbc+dRrWB3cmKjX0YnqVQolCm4f6wAtWFKswedf1SwY6lb/q4Bh/RK6DkqVI8pXBLxGeULYT48AgwFpt4rFKRPyCQ+2Ubdg6iexgJF6kbu3eAlchzHoCJUmpgAWcxPk+ZTTghFuOTyAqgj6wPsv0a5jSNWnH+7NMnXwCDwzXViXEOl6IVXofy1U5My/L1njGoUh2/XxIWi9IH5/fLKl+gk8jUus4Fw9siWy9XSsGKpRLTzPIf/u6bAfvFq2BK1nJ8ExVj8ywFUjrGwJWk/1Vj+cqkCXs/KC1vOyoIEfzxWwk0e0hKz9uUK5yt8oHFpC1jO4epMsGCbMXf1ByNqbK61MDu8kWO4vK2Tt7ds/38W1X81jGqU/f8vz37PM8Dq9gqe/DX6sI0s0a694KVcvVCwkS+sPIWC/RAivfs4vUSysaIlk7TgifDPbHhoE3Qy7SNZ+Duut6lc3Rfjkj0jWC8CCm77Qx37+crCMDAx3s1iQv7NkCVgvAWtHxYIjSBaAErD2Ait/6xCwXjIoPLpHErBEsQQsAet9FEs81m6p8M97jwqtYkkday+PBe/tsQSsncDKRbEkDgQW/AzJErCOqVg3Fc/1BVMB60eDlYhiCQWHAksUS0IUS8ASxRKw3gGsPbsTjoGYVN5FsQSsn1Nu2FGxDsKYgLXbXKEolsTj49eft+5usGAlAtYLwHqDucJE1n+JYu3QkCVgiWLtElrAEsUSxRLFEo8lYL31XKEo1kEV69vXscRjiWKJYolifaPKu4C1D1gfolhCwR7x8TjFgsHh0PeQu1lrBqPvjFgNd4Lb+8HjFEumdHaJ37iucGI3xTV7Ll6fmrvigd8cHz28BkanARuVpFl2OlX2LcvSRA2OdoUH4QUC1m5gfUmvrk5NhZWCApDfPXmVgKqa4h/GefBH0Zyy5KFnHQhYu4H1mX+hsn5zHPSS9eKDyaHWTo0yJ0SJriGQBsohxUyNgwmzdFVpnT/qiE5pm9kTrC1G3J10ZOE4VU1jSSjse5uw0kTjaQRw/yqVZFUxxOVMsJzstWlVTKE0QViT6ccIl9IC1l5gwSrFgtGp8SY5NU0xoSiOsSpLzEjP/IcmqZri392Y+dbEi5tTvTr1ClgvTIVrxn/4zqi0uSsoIWGdUu0OFAtUgWWxYIFaiU5BSojhPubb93eoEgNf9PAC1qs9VsAqnROd8wiMKlPeO0HGlzEa55lc51JdhWlV1XVtjDuGvlY6SbLT1c8umpSLHCBgHQ+sVRaL8FBZ8W9erc5jxIpTUgPUWTG+yItRwUrUX+S8uYJ7Y0wAbS3a8IrGpl3YXqsVsPYqvceMCk1WXBudyg7sKDJn5KfEzApXM0KnVyMrRMqND70SNSesJtytUqH+mToJN3SsVgrEY31fj+VMUkMeicdxODAb4oenAOr05AsG5ynIUhVGAiMcVFqdVO/IpsqtA+RBDQeQWS1gHVGxZk5eG3zRVD0tjXXmcJWpwJeWqBBRTYhXlfDB0wA8ATROc4OPYDKC13OlsLTXwUbDRtUSsF6oWEhWEh5jc1I5PeWhtwEY4oWiMnRDZ+u2aq5Y9HV3yGGKCHDngde11p2Niw33p9bWyANrHd2i/53+ZQY2DQ8FrJd4LAjlq9S77yKtg3LAiBEkJnwR8yK7IWes3AARglZdCxGMGK0tTW1buvhro/TRWsTqoHaA2dnn20ptGhoKWK8bFboHmIXyFEBIRvYdlQI47CcDrPzDV9aZF2SwGSHjxMipUa9EBoaJ0OgWiZoIR5dm5UKMM18cK/SWZChTOs9WrOGn5hRkoT/tD1hYrLTgmw2Xs7QZKRnSp5NBDrNXoRoFUtyll071bLkX3UfLXmLZYq/mZhcrD30qHuu7KBYZImCuisz4DGhqfSl7Ono9cXHprAgBJ8aQNFGrVNfeXsUX2jTXlxrAdO3fvzNsdeEnUJp2kcaXtKS7YS+w1Gwdi7INc5WAd9b6MiMomK/aSzdgi02Vg3H+Mn+Ru6C+lItoEfiaTPy5yGK5kg7SvcJ1kM54LPeEWRCamvGou1mqhpi46UKvWkavuMzqFlbHKPQCvl0dSiFhcCg978cBa06xIFdUvmoU645ehVVwQ4Zla15/xlJk/Ehx4aKy1Wznwugii5MsUay9vPvHwhL7vKYBfaFIRFbzwY+enryVq4jLPFqw5LTsSy8151pvtNK4saGsK9wRLLjb824jI/eSMFdtHFcd+6wu6jIvRXjOfLsoWjT0TL0TjCmUimLtBdbCukJQVBZNSUB0JB8d1ZsiZc5LUb5KI8vOUOJkzSpUTA1ewNodrMk6FrvikzfTkXDQIzfxXNlw+RDRWrq8vLDRYs1yo4y1ZIli7QnWzKgwQRVo6EUqko+2zjfYsiv/5KIrl1/oxhkn6qE/RRh48VjPViz6qGFD7J5b3UaCoSl/buTK+SfF1n+RLBI3U9HMoRaPdWyPBQnlFqqKXiKxQO+zCMUCm4aKHms0y9Wz6D9CY6SOdZxUeOuxgByWq7jbt1hAWioZ6C9w5WqgPOZbo1n2lboYzBHIgtUjKhbwYzr/q8zGRIglzsFlWxBD3Vvls8xgWrOSucLXgwVwb5shN0loTQuVsCKdkn3Q2J9++Ypg+TEfTkovVh2oskElB7NasaRtZk/FmhhGOb3B5r4GH2xdbnLu+qtceS1aQRa1J1N9JJV+rEN4rMk6Vq559g0F6/ox3nu8QWfQ8LdfSYOjOtVyMkabldN4owLpxzqoYlkusCxEk4RbSg0QPZOz4LP0omQ5UlxH6fpxoYD1bMXKgcbujdkwl/P3ssnwz08NLXHqXJavOBS1gHVYxaJ+mdNkJlw3JHyMYPWObcFmkc2nEokWsI5aec9p6g1zmlnbSzWsYXnD/wi62nqFzSrxV6eCQyJgHbbyjk+oyPMNXS/djMPaRluLBdD5lFzW/f+HVMA6aOWd5wkrfJ5xmbAsUV/MgxzW0MDPJkN07zwNlQlYR628Q/+AYhG5bDL8q2zWXDIksBQ1+ghYR/VYilOKa09uYzNhHm/4V9qsmayMw0IGqxKwjpIKryPFlfE6j6+fl7h4xpSPBYt1cKbJguoNAtaxFYumc4vaiUCkd2/Hbe7lA6rvg6LrfcppulDAOrjHqnCisI4fFHKh8sGZsG/EuczWUQWsg48KqRfLTY1EDwqdzc7r9uFgYRVjpsNrA1jSQfp0xaKpkQp3a2ijXXb+4DHh4M73tZAnC+NGhQLWPmB93vNY9aCMVUaa7FXzzxvA496sey08G+pYolh7gjU5KqxpphD7siLW1NOU3Vyx4UutyrRZw50qqfuur7yvLZDKKp194vddxaIpaKqPRq+qz8HskAlDm5cuZ6Z0spgpHVGspyvWAKy47lFUlV0sVqiS3pkJKLHLOnISWsB6nWLFgdXChtLXQ6a3W8hD20wiinVQxdLbwCqxK+oLq1SX7k8dhOWdPBka/ZR4rINW3vVWxcKJQtP+3Qms5O48JBVm6yiwRLGeXsfqwYINYI2XE/q3Lyxcpb1z3Ttzb16H66NF2BhEPNZrwZo+E5rBcp/XMeUGmtFDsLiljzZov7TDzXDLKKg6regUMGNq2qVh6lfCfmj6vc+VEcU6qGKpAFacYtEWM9pD1V7CBt2Le+JOgkpbb4fjKDhpT00YtXjyRRq5/EvAerLHCqPCyAaYAVi0uy1v+07rDGs/nivXQOUMOe7/fn0C9KSHa7E+muFJGGsL77J3w35gwfSwUG2qvFuYEKzOMRGkyp8nEL1bVun3ufUbeodd4NvpqSSuNqzfyEh9/hIKdgILFuYK4yahW0PNWHzUhN+K3Z/pBDH7+3Gj+9VpYPfAon0p6ewesx4sUazneizcLfkc3d3gNgNxZ4X150YQTf6cHYjYOZJanCmFan8MGJ5nNwUW7d1g/I5e0o/1erCm+7GasIVZTD8W7jKT83kU3rMjE5dOsdda26pFmzG47NkOxpNYVJgCC3tqkthtjESxnqxYPDVSR+25VnL5OxxdSIfn+EN2WnZd6+7nlz93JR3kxCNKXDFxy2bZ4q1PcZvNCFhPHxXyelU8jyJiRpnACgd9BakpCS/qAV0nWRe/khBHl+5gzDJ0803coev3ily/o5+AtVfMrdLxjygKrM6PBUx/JJMlo3P50GK2fheaMN/sN8iiiRzaFuK2tMaF2SJqplBGhS9QLB2SSsyuMR6sYVnB76tt7Ndo0LimMlbiqNISVCo/BkCw1PSCtLYOdfeozW0FrCd7rBxw3H6KXAnNOuOM0fUiCNqauwuILLbf5NR+w7dknWtxFnACLDyrMNTdQVLhUcHKi1DIiljK5cEpr+wPk6V5S/ZuhcWihRMlbsqNXLV/PVi316O3g7BRpHisA4NVbdlthvd1HL++1TwpYzkZzSUur05saWJHa39I4mV6QRotpAA6TseAjAoPDBY1j5u4NfbYlX5TUuV9F9xu7dSDsMK1dcPViaExoqQ+wnaqAdD7wibiZDkB6/lgpdw8DlH9DaQo7XXrS+fKBZgg0XCZSLCuPVw5kTjDLu8xB/gKWM8377o4+1Y/iAHrf/autsltmwfO00qWlC8dqoZIvfn//8yKAEi9WiIVO7LvgTKTpsnl7qbaLsHFYrFZnFuJ03gIhOxPeWzqVaQ2rG6VFDQTrWLJZoorGKvB/OE6LpLI9EdD+V2gkoUJHytme6I20GhQVpWY8yw7oa8H1q/njOW6hQBBt7hZpmN/oE8FAKvfvI8++dv4VenwDnaPioP0jc/fz4HluoVZVDqf6ZCxHrtzh8NzvPuw24yWMZvLwOgKSQE5wUPQMqXzTmDlzxmLroW0DTq8eu/0ps60NMMca+8GfXtLCHWUiWq2TkKNO6XujeyE/mhgudyWQsVsprA9G9gFFo3xHF8HiNmaNbA2Sr5usrq3jSEsqbHeBaxkB1ia3ckqZgsmSVaPA0kdjs2DZLxaftx25UXOhjoqDkQY6zJgUSB3FbUVB5X1fcZiQcIEKGLrL9yTB3UrZoZc+lWupMb6aGCBy9doIKZ6P2asLvBauNn8wZbgAlhsmUhj1/YKY13FWHR9T2KWnhwX75z4dwysyejronhfAovcE3QS3gCkxvpwuYHdTbSmqYsAFhwCK7QNvaruOkpe2yjzaYzinilhrM8WSK1Zzy+WC/e9HwMLK6KQs7XbyLLFDKw5sDhAsjhxJxRgXdHSUXaLfYlZ7xFhtS8EltmY9DKwQjm3D1sUsQoFAqxPB5YbqEhi7Mn94cCYyUKB1a8vpGZ9VeSUZncnhEgdS5rQfxpY9m2VnAyighOvnrgbVmNdIQyIduO5RrpuQpNnld1jrY4jLBlYvYaxAJskMQYHQ+pTtw+swMkfPuSmkhdfFc2idGcx957G8ZVMQr8PWPne/8+qxSJLQbA92Rzr6hELBuiTLflp3hBCix9PQFdaqbizUID1tmbh7n/3wq3vDc31Y5+B2QdW6KwiNZdnKv3S+kwLVridc1NKGOtThKzdozCpfJEVpmRRxaPNC3SssXyffCyHjvTzz6Zc6Q6RtbsA6xpg2f5b6aJBgsx+zwaVl6OlgScr57r38w7iBFg8IHtz7RwQYH0FY2kqsprgUZ2A9QEuQSt4/nV2bi50MsqY4bGvAuQo/Bzpff8+fnPjCYGeLLNlSdgK+wgMySIr8uQYZr6bDVGw6h5fuguwrgIW37aK4Hloc2iy4bopUBZbUVZH7Dkv3duTpbsA6xJgjbPFrVJhc/GGEhf64yH8GBvO1M+Am5g80EiOTc44sRywpKVzCWNxGoIOnajY8kttVWHBJnrWL/zXnsmrFA/J32OcE0uAdS1j8Tw0phnpQGDtH5q0DSdiaH++CZrXBEyGX4G8+XZmW4D1JYzlm7vBXZ1jYPV7uyyPKWsKLEr3Y4dfCyDA+qKjkD1ZoUsIOziaV81jlzi5KstM/j59J1RhZVVk7qg4SK8XSP3Y6pZN+ElcGuwCi4YtYnbcc3uwMUvGogoLblZqs66xE0eh+LGuA5YXHIJ4xsCBjtXrqMnq0XrMn7QbxVq6gTanxVFhrHcCK9stsWzBxJbfsNEacn0+H6BnRTMiOR77gyNfjjoWx3VTN6dq4sVRYayrgEXgotq4CdtcSH6p5/dHSu+I24DoIDRmkKKkhrtzeJoQt0mdKd5lrvASYCG7TASHgPnl3gdn76ijsRuj6ZPiSUyrmHqHNm4/V9mpg1AY6zrGcisxax00DWhorvBZDUWdvujFvpwwmvsI5c5l+HGFdTtXYUmNdRmwwOfkZWEOB7LxPbv1PV+8exw1goD0R21HGparsEAY6+sYC19eeU+ebN3ars63qc0O6MCZFff+CO0YmVzQ51V8EIjUWB8ALNSGcnfaBGGC7Fbb5XkPcWFby8AH3dFJ2BuWIFyFBcJY36Vj0XZTMg/g0ZOZmCvc9pWxPwEsJsKcHKWdc9Pcf6/CkhrrupbOaPxNVNBZ+K9TncxGxBHEhLitqyxFCy5yQ5tzeISi0qdxJYx1BbD82ibXiA5TCqibt8Vt57SGKdvhNzWchNTMoaYAZQ4KsD4NWIevBLgRTTG3WRd4hVsDiNZ46TOExVUWZ5UY2r3KxtG2OaO5i4P0AxjL7S2FsNBIvsJtBtOqeK1hVmWhKaejJcDkdB++rdOwkhH7a2ssLpLr0NDIyeqctUuh//fkQwqZ1chmzZzIuAZhrA8CFqeRUmikNqHigN0EZ5bxRU13Flhu02pOhyL7+zALh+gV9PAAN6IEWN/AWHbUvsTtR2GUQ1sJrQmvMzNcnD8JR8oDBKir3O0eCuxrJ7e6HZ461cJYXwIsvheWNGkclhPTszqgPWmdMcwsiTDne6FVYFt2umd5kt5qOhaJw24NCGN9CWNxvzBXCsIW+ZoHc5bGVfbm2UKAM/o7jBnJw/dUTTCFYbxD2ZULY31JjTW8xxJHQkMsDmYcJeWzy26w70GdFrGWZZY3ujOSVk8ijPUdjAUUbFaF76B/aN4DTRkQw4P/7I0xv4EtzgAB1tw3HoJZm6kwR6kA61rGwrZOeS8LCEtQ9pvnYXy9+OtG49l4DlWmf2iSyPJqhaiqauvh4T+4BYqmAqw3PX8HAov3rbaY9XIoGfCuetCoqdKicaynCWw6PwWtLtf8uZTOb+0EU21dJHljv6bOamSt0P6hAOtKYE36JzhufORPYH8yNPW9TbPxFbvCe/iTE5Yskl2Z+WzsaJakRZokmVYTZgRoY9JIBVgXM5Zb2lbjWbh/tyMIuDGMqi4y2v5NmFKwSqwNn1tVyvHfWP4xEyr3uymfhUGSgwDramC5cDN0KO/HyRCulL5Nz6pb4ylLxY6sTmxew2HX6MmnUXOAjYta6lDGEnfDW56/QsdbXLpZjbe9PZG0ywgBhRcCUKnAZgvoR04NmUgJnjZ8DbB69F3fuBPV6aUesvaXSQSwxDbzrkvhHrBg9sPvAzzwOJA5RuminGoArWsgG0P2YgVdbDvHohGrftPnjRO0+DrQNHneENxuMSlsAqw3AeufcMaa7G3bUdDZgwfpTBBos3Ey0H3II37M3on+Azr7/jFAyeIpf1j9tesoK8tJp0mQ3iCMdQWwFoxlc6gsC2V7PlDaBedbxK7GypWaVOwYDBI3Dt1trNXxD5IYTYC5HmKlw3QsmdK5nLH8sD2Nrm4X34QrZ2Z2h6ENx506/4iy+DOEwavfPYCH41XD5CYafBIKY10OrHEmukqerkBxdplseg5WfA5OynXcMKhjjA79zgS1wXKezDOMq+CRewHW9YxlO3QlZecp2KQPtlypZqKKt0XODpoJx/UAQSbnBRNuActeBhpnh9fuC4cuaxLGup6xLGJoUQW+to3GjqHsPeoQl9i8S7RXRicfzntRYoDFEZRzr/MAqu6Ru6Yk6MQRZfhiaKmxrj8KwUUllC3O66yUKFrwBiSM1ilKAmzLm+OKUv10F+tqAPJ28dMN90InlqLAcXO4qhsQxvqmGou1LLfBcFFmcdSsFVKrW6Mm3TtsO88UVKyxooGFJ3CT5XmeNaPlj39/1DdqiPC8C7A+gbFYTseEkOWwvPOMpsObzUif8L6Gac/Z8OhpHGPlE/MNuFYOjO2cpPW30LqRgdVvYyxcjWl9WRVN9k0yQniDrt0SUY+oQorJ+6m3D/OHsGLqIjuFatZ/hjEarknG20IVF0YqwPqMo9Bb7FpmHT4NDfHVcCGsMPvFoyrv+5n3yviBiBOMBf6nSWSJTup29I62OUTMRQPIsvG3AQuicOXnj2tNtY2lo6GOJjCh0NByu7nJeYxidrsbJ2gis94VGRv892H/NUuKeiaZ3TT3pGWY4ruOQrdqq+QoDvt6bS3tWsK18xUMxfTa3G6sB5RffPQSAbt+xdpvimR40uJW1+1yQKdNIDYfRID1IUfh2OW9F9qb9/jkI6Gh1XTpm/MVygOa/Xj4c4wjq8O9qrfyvvO06WQIWqZ0rgZW/C42bjCX1W20dBK0eOidb314GPYsPHWPR6PZQjpUzMGLNcfMLT9U/wxWp3JIBVhvAla4H2vyo3AvM3dRaPa1+6tZ2/CB5L1SXhxXJJAXsQFsvR4TJO4bAzp1AgoEWJ8ErBOMNZqOaZodX2hzqybuq+lMjvekc8k9lNtFJGNhRwdUNZ1OLceKPeGBDRBgfUWN9YyxKDCr5Lea5lmWpPNTqkobf3fjs5KF86aoSt4jEQOsB3LikqcqmwHS+IEKiTH67hpL+TLdv+D1+GhbaD9SCG6GBhqeBoxmLFz5lZEAOtwHh7thkSbY2FG/EecnwPqYW+H4pNVmtTORleoiyZzwZEWnfKS1aGBhYZ5ETN8IsL4UWAB5u45MqBLbCy5nU+8DuaxEp+ijEC+FxW9GbwuwvoGxhuOwsMV0OQumsg6n9j6b+1qU2+UpYPHGy99aQiHA+hJgKcjSaYBCkVMNnd1mRFauiK1EdEQAy3Tj7mcB1o8HFrnbCwpovOXgL40qG6WHlVZeuVGHmJZOP6ZHCLB+OrD8LzBSFhamgbTdSkQr2wJl1FrF9QrR5tfgp0xfiivxY30csA5fmU5v7USIsIV8kXHoZB3HWBRfSj3K5MWMJcB6D7B+vQFYzo2HNuIkTdMiHUWnU8BCN1b+BmAJY30TsGZ12IrITgMrcWk3r3xkSuebgMWU5QJIZ07iM8BCmx/nXjUgjPV/zFjw3M5VnwKW91QoqbHkKPQ0BQtgtTR+GpONpTgfUAljfT2wYPfH2VeJwFIxwLJuLGA3VgVSYwljPT0KWzwK+yg3FkVVtuqllCWM9TMYy/4ta+WKPAonbqxaaixhrG1k1VgpqYjNhTStmkUtBhDG+qnK+9NXWXClFAEszPhI729oFQqw3gWsv/44YxUjY5lQN5b9i7w++OXAkib0TwAW65wl7YwOzh/10bpVAgIsOQo3H+zMaAXBK+ZogQpvTMxeTKDZr/8JCn4EY+Hi8jKL2F1Im8QofrJqXvztCLDeBaz8D+OKbnd56A5gBywbY+O2jwmwBFhb0HLx/sHAQrXBb8gBYayvANavP81Ydp4ZL3eh+6Ep2jTx8e3CWAKsTTW/pcFCFbQC2EcYkbchVyDAEmBtI6t1zAOBSykwFolkLK3OZX8IsH48sLBZyOFsXeiIDhAc7+2LKywB1k8CVsG3OxXW0+Ek7ipiQ44A67OB9Q4/Fjf9aGl5kJBlMLgmu79hREeA9ZMYC3OXrdAZCiz9H3tn26M4rkThD2s7saBHm5ZfZPve/f8/c6tsJyQQumm2DYSc0u5ohkCIxKNTx+VKamp457q7BVhQrCu/pSsDDG8rZPGGzvgUyuB/2boDrGbx1+M9Vt71E7c+FiTf+lU3dPSAVLgVxXoCWFl99K1jmkoVq9TdYwOw0N3QSLEe3t1Q3ftgbzJZubWhrCR/vS0ZbTMtFesJYPmxceaGsdBlP8eXu+vt719LD7AamfcngFVyYZlkf9t9FCI/qSZaKBbA+urXlBmT4fuHr+VZwGOTn2ogWPBY7wTW0LlPHlnOWfFLl5VnAZdRdbn0BcUCWF+brDLLyX7zAAceFZYXj67UGiw81nbAenzPe53Cyl6cyer/9xVXedpTGf0UW2RCKNYbgcWS5aaRO9fK73liZg453fdl4bEA1teSVZ6sXSZXrGgWTwsbJzuJsSe5BVe4YfW9FKtW0qsmxcXM6DzZsJ+mIBaueA1pB3gsgPVN6wzZ90+eElaeDO/z/N862PD//9R5rflu6TpZpbeNLgWp8AlgNepuKD9onoyS4jSWPPb/UPTeTpPC+KnedbSmsK0gB1jNwLLDUzRLjZMNC0WLGKcT6Powb9kkC0Kx3k2xcvqLKQ/accKPE1oXA+gGnmw4Dj9sxxUmU7yZec+NpIWsEGe8DeOEQzHNp8t50LbSVYD1bmDVjZoyende/MyDDWdTD2PTXA2w2oFlh2ap5iuuxsono5V4aCa90vVSheROA56c9G0vDWC9nWJNNarPlUmtn9Ms89b74QDrzRQra1aXzDW0eABi1/7SANb7eaxsqMoozcuphi6UPerWyAOs91Osgg1PNjwbwurIccUHXRHAej+PNdTxYHlKq6tBNr73bRoZANZuFKt+sc2DDTlZjGmeAAAKXUlEQVR4pqG19oFXA7DeUrFq0X3OtX0s4wDrLRVrGmk4Djisrt4iFUKxWiwWH6lYf4OCN1Ssp2PcCYDVIv68nGI9OAAWFAuKtSXF+nvnitUDrGZgQbEQUCx4LCgWFGvPAY8FsFqBBcVCQLHgsQAWwNq1eVdu16EkwGoDVvjcdQQoFsBqAha6G9qAddg3WAZgNYoDFAsQQLEAFhQLYEGxABYCigWwoFgAC2ABLATAQh0LYEGxANZuwfoDDAAWwAJYm+luAFgtwELbDMACWAALYAEsgAWwEAALYAEsgLXjOAAsgAXFAlhQLIAFxdo7WKAAitUCrCMoAFgAC2ABrH2DdUTbDCgAWAALYG0j0PMOsKBYAOu35CQ/Gu3qwZSSA1gA60fhkhK+DJvzvToDyLggY5k9tzxoUggGYAGsq1KVhB8HF/J/vk9mdlDGOpm1HlQTjp237qceC+WG/YClPGuRVCGkoGTH/1IjWU7xVNZO6HKwp4NDn0awhsFBsQDWlUh+sF1yZkp8lPd8zXFGEFddOB1MwhJn4T+AhU3oh4PlpJiHSuYhiVCQBi34cL0duvyKo2NeLi8jEE4xAawtgdVNg5qLVRbuEcadLNSZB0/07flCNYnZuT83iclyd4FlANZzwBpEGIPMjj1TknaZ8Fwa5TAI1hd2WyufoCsT5k7FOgKsZ4Cl56t8aa2+WXeUuhPC4G138RoRxSlxsMKs6c5gfbpTsQDWs8HKP6w3N+tOTPeCNVyAlaL3+YhfB4csvbhPsQTAej5Yn3qw6Xaw3P2p0F0UTBOtHEgx5bXPWPoMwNoqWJSR1A/AMnebd7X2UUOCdYVrTpIKYG0WrDQMN5ks8x8Uyxgx2Lh2WYlev3JOI+0gDcB6HbD0z8CqimVS0FqrcCpsuRRUfqnIlHOBPJZz/C/jUj7Em3p5U9nQH4bfn3Wp/C2kk74FrqZLeuFMtpRdte7l2GB7B7A2CpZRduBclITP1S0bRU1NSUSbJ7X6KPmnjZFMT4xREEKq8/nNvk+fIhKYIfZGU77LRU/6ZD5cP5i/Rnt+O2/buDOHJ6+BlbiECrA2A5Y9WxXaaPLivpMhpSA7W8qV9LNymwHplPSWa11C9ASSENo4Smw9v1tJ0rB8wmA7RUxqqY0J1naaPsk7y34UQBNELHVZG6Uatayku2uXOgCszSoW/bJW5Uwly2/NlS0uKhg59OOvT0cDGyUuNxiTV3K6vjvFzhewIvcr8FFazU1H+7ptU/6lhGcFzCIocknsO7AiwNqQYok0RlAdpSJKbXGWkEiPOsPtKuG002fFrI5FhlubU4U8m39WPFcXgDNU6NvkcqtGyb7zOcV67Rjfr8CyAGtLYFk/Rfl5GQu3WCcmWo3NygC6lDcLWKQycdZKpW0Ba6iwqQzClAAvyp+GjD9lV5YuksSvwEpIhdsCK/ZjkGFyRZEWutJTcjP9cLE9XcoN5MrmhS9XwCpLgJxCxRyjeKVKlgQ7fV46XF0VZhW8DyxQ8BTzPo3lrov/M1RIoIQxvNg/W8JVsOKypBmLx7Lr55KDNuulLU0JMYRh5sIuyg10HQDrdcCSP6pjFdjCUipYRTS3eQ6+k2Mh6wpYfUmF3XT+2M3C87lMqX5dJmXprL1WeeceLn0fWB+g4Alg2RWwfFi0B+TygnFBcSnLcoHAXQerlBtOYNlOLHsJaaHYdZfNOZQ06Xu6waort+wQUuG+thmA9ZqKpWa+hwvywtvenMBavtv4JVj97KiZbdxc6pLmrlIyWVf2dMi2RXNnPxYoeHqBtCadpS86q4az3woTWPRuvayPz8GihYBaKxz4NbB4yyYOq9vTxhQtA1hb3SvMJQOuXM01SNGqTbozVRrB0nZWQuCCwQIsbefnSpzO2OAPciUV8iJB22Gty4uuKdt6gLVhsEh15vlLcVUrLDoZuhlYXGCQs93lJVh0dH4uXepYRM9FOx8lTVZGdlkrC0NVO+Hv6iCFx2oC1vHHYFHy606bepF70F2cl9enVJjqPYKCGxWMIYvUxSVYBFE8ncuXfvYUB3teFiMkc4thogVCd3azkFO0HtX1ei3M+2bB4q3o0s/utM8IUKLKRfnyS5X0xhs0iatf7Lh7qaWgJWDqzsByYhjPpXzFiROe7dNCV2KtjdIidBi/faqeenJubryrCIq1WbCIBr6jVAi+66rkOSO9tb3QWkS+H37CI+9NJ9lF733syXf3dgkWfZL1SfJiMo450/AN9laGXJXllgm+J3UsQaTe0teqzOy04TN0032FUp+HMlCs1wKL1EavFiTLsxXs0OkpjyXd5X6sKGsB3pgg+z5nyPxgmNK3lwukLoT5uXTkBpnTuYp6cVdD1wvRd7k8NuVG42Tp1qJjosu9XLl6FipYl9E5KNaLKZb54vWV+rhZKZmbxXOITBzCytnOPsg2XOe2htySRYT1i5tUU36cQzlGhMkUyFvx0x2c6Fbiy7tsAdYzwPqNu0+7uWCkcfv5W345yym+w19O7c7Lg7oczC3N+V7oTNZqwGO9IVjO25PHIZPftXn8gxO2u+veDYC1UbA+ZTXWpZfd3/l13+Lo1F23x0KxNgsWlzYpYVGoznr1kOfVQLF2AFZexXnPt+0MfXg1rtA2s1mwKIvxfYVSnjUCAiyA9St4mc+XDIC1cbBeNQBWI7A0wAIFLcCSAAsUtABLACxQALAAFsACWAALYCEAFsDaRHwALIAFsAAWwNoMWOhuAFgttjABFsBqpFgHUACwABbAAlj7Bksqs2uPpQTAagOW3jdYGmC1qbxL6fbMlZMSYDUBS++7IQtP424Uf45C71iynEThvdmyUIbduiwTBDJhK8nSQqe9gpVIsJAJ29l37XapWeTcIVgNJeuDydolV1pKOKyWZAmp0+40yyTmComwNVl7c/AmgKuHZEOp9mS0eBSi1OCqPVkv+9CONuUrkit9BFcPIOvAZOmwB9UyLkiWK6wHH1N1+ChovbuLN+WRSscD5OpholXQItl6V90qz8TlJPgBrh6JVrZaxJYK6Q3tFj+GuWAFqp7g4o/MFi8SQ3LmTZSLx1vwMpCpOsJbPS0jHo8ZraJc5h3yn1I8+uSIFPjslEhwyTGYLh5bsz2ZYp0KGSmZqToc/gCrl1AuXYSLpEuFkLa0XnSJZUrVKU1H1iow9WJpsXguXQBj9Xpd+coiVT16zeYl/5FUgatXS4uTdC3ly73YupGBmolUNeofQOrlteuD+DqbA6gyYFnCzFP0qShUNecj+DX1YfW3IU9/yHwdj2pUBTkSVkTMPEqdmKYwKZQ6TvHBRMGlbzU5Vr5OKXJETCodMmRFyqqazeJmKZqiDFl1eZZmyNpUE3KNStNHtVIg6h3065B/0KIV6qhOWXKcn6sKASFrWkEuLCIVXmYvTH9TWZFUPsE8A5+kqeJ0AFHvKmF/lowtjFj+f4nGZIa+isJUAXOR6U44YbW3I8L+HE7xsYjjbfGxFocTSEWcwBOiEHfG3DL+HS8YIpIOTMto8hkFZCa50SAYBaNgFIyCUTAKRsEoGAUDDwAnp7LzKmvPVgAAAABJRU5ErkJggg==;" vertex="1" parent="1">
          <mxGeometry x="1969" y="17.5" width="90" height="60" as="geometry" />
        </mxCell>
        <mxCell id="8eVqctKR0tM4HhJl3EsU-246" value="" style="endArrow=classic;startArrow=classic;html=1;rounded=0;entryX=0;entryY=0.5;entryDx=0;entryDy=0;" edge="1" parent="1" source="8eVqctKR0tM4HhJl3EsU-87" target="8eVqctKR0tM4HhJl3EsU-244">
          <mxGeometry width="50" height="50" relative="1" as="geometry">
            <mxPoint x="1759" y="75.5" as="sourcePoint" />
            <mxPoint x="1809" y="25.5" as="targetPoint" />
          </mxGeometry>
        </mxCell>
        <mxCell id="8eVqctKR0tM4HhJl3EsU-247" value="&lt;p data-pm-slice=&quot;1 1 []&quot;&gt;получить координаты филиалов&lt;/p&gt;" style="text;html=1;align=center;verticalAlign=middle;whiteSpace=wrap;rounded=0;rotation=0;" vertex="1" parent="1">
          <mxGeometry x="1779" y="17.5" width="135" height="30" as="geometry" />
        </mxCell>
      </root>
    </mxGraphModel>
  </diagram>
</mxfile>
